<?xml version="1.0" encoding="utf-8"?>
<!-- Generator: Adobe Illustrator 16.0.0, SVG Export Plug-In . SVG Version: 6.00 Build 0)  -->
<!DOCTYPE svg PUBLIC "-//W3C//DTD SVG 1.1//EN" "http://www.w3.org/Graphics/SVG/1.1/DTD/svg11.dtd">
<svg version="1.1" id="Layer_1" xmlns="http://www.w3.org/2000/svg" xmlns:xlink="http://www.w3.org/1999/xlink" x="0px" y="0px"
	 width="288px" height="288px" viewBox="0 0 288 288" enable-background="new 0 0 288 288" xml:space="preserve">
<linearGradient id="SVGID_1_" gradientUnits="userSpaceOnUse" x1="217.7812" y1="185.1807" x2="49.8303" y2="131.8082">
	<stop  offset="0.3388" style="stop-color:#004A8B"/>
	<stop  offset="0.6467" style="stop-color:#00ACBF"/>
	<stop  offset="1" style="stop-color:#FFFFFF"/>
</linearGradient>
<path fill="url(#SVGID_1_)" stroke="#FFFFFF" stroke-width="0.076" stroke-miterlimit="10" d="M54.156,118.196l170.055,4.86
	c0,0,25.9,78.377-77.302,98.209C146.909,221.266,50.845,226.387,54.156,118.196z"/>
<circle fill="none" stroke="#329FC3" stroke-width="3.6424" stroke-miterlimit="10" cx="142.122" cy="133.431" r="87.966"/>
<radialGradient id="SVGID_2_" cx="-85.2988" cy="144.0479" r="22.6035" gradientUnits="userSpaceOnUse">
	<stop  offset="0.3949" style="stop-color:#FFFFFF"/>
	<stop  offset="1" style="stop-color:#F7941E"/>
</radialGradient>
<circle fill="url(#SVGID_2_)" cx="-85.299" cy="144.048" r="22.604"/>
<circle fill="#FFFFFF" cx="-85.299" cy="144.048" r="14.478"/>
<rect x="-187" y="12.806" fill="none" width="146.5" height="39.791"/>
<text transform="matrix(1 0 0 1 -187 38.3955)" font-family="'Noteworthy-Light'" font-size="30">Trenton</text>
<rect x="-196.95" y="93.333" fill="none" width="140.367" height="48.624"/>
<text transform="matrix(1 0 0 1 -196.9497 114.8726)"><tspan x="0" y="0" font-family="'HelveticaLTStd-Roman'" font-size="30">P</tspan><tspan x="20.01" y="0" font-family="'HelveticaLTStd-Roman'" font-size="30" letter-spacing="-5">O</tspan><tspan x="37.95" y="0" font-family="'HelveticaLTStd-Roman'" font-size="30">OL</tspan></text>
<path fill="#FFFFFF" d="M-168.509,98.838c0,0,10.511-4.699,12.011,2.301c0,0,5.498-5.344,9.498-1.922c0,0,2,14.422-8.5,9.255
	C-155.5,108.472-168.852,112.204-168.509,98.838z"/>
<g>
	<linearGradient id="SVGID_3_" gradientUnits="userSpaceOnUse" x1="349.6377" y1="11.9482" x2="392.832" y2="11.9482">
		<stop  offset="0.3388" style="stop-color:#004D6D"/>
		<stop  offset="1" style="stop-color:#00ACBF"/>
	</linearGradient>
	<path fill="url(#SVGID_3_)" d="M386.807,31.864c-23.635,8.176-22.447-9.279-36.797-22.529
		c-4.17-17.672,27.836-15.187,38.062-19.401c-4.089,4.531-23.433,19.599-18.3,29.571c7.416,14.407,16.455-0.569,21.624-7.167
		C396.217,29.132,387.407,29.36,386.807,31.864z"/>
	<linearGradient id="SVGID_4_" gradientUnits="userSpaceOnUse" x1="367.8291" y1="9.8721" x2="392.2266" y2="9.8721">
		<stop  offset="0.2148" style="stop-color:#00AEEF"/>
		<stop  offset="0.538" style="stop-color:#91D9F8"/>
		<stop  offset="1" style="stop-color:#4BA79C"/>
	</linearGradient>
	<path fill="url(#SVGID_4_)" d="M392.227,16.034c-6.172,6.945-15.192,19.775-23.074,5.944c-5.792-10.164,9.021-22.99,13.803-29.094
		c1.027-0.445,1.537-0.697,2.547-1.272c-4.498,5.329-21.459,19.183-15.993,29.272c7.654,14.127,16.749,0.155,22.384-6.601
		C392.055,15.01,392.12,15.359,392.227,16.034z"/>
	<linearGradient id="SVGID_5_" gradientUnits="userSpaceOnUse" x1="364.3672" y1="13.0527" x2="392.4785" y2="13.0527">
		<stop  offset="0.2148" style="stop-color:#00AEEF"/>
		<stop  offset="0.538" style="stop-color:#91D9F8"/>
		<stop  offset="1" style="stop-color:#4BA79C"/>
	</linearGradient>
	<path fill="url(#SVGID_5_)" d="M392.354,21.795c-8.662,7.392-16.603,15.225-25.3,2.632c-6.889-9.972,1.113-20.341,5.629-29.087
		c1.023-0.095,1.539-0.156,2.575-0.314c-4.798,8.183-14.265,18.926-7.604,29.02c8.514,12.901,16.794,3.84,24.823-3.533
		C392.447,21.047,392.422,21.302,392.354,21.795z"/>
	<linearGradient id="SVGID_6_" gradientUnits="userSpaceOnUse" x1="353.4043" y1="14.1523" x2="389.1729" y2="14.1523">
		<stop  offset="0.2148" style="stop-color:#00AEEF"/>
		<stop  offset="0.538" style="stop-color:#91D9F8"/>
		<stop  offset="1" style="stop-color:#4BA79C"/>
	</linearGradient>
	<path fill="url(#SVGID_6_)" d="M388.707,29.452c-25.4,8.637-31.732-9.857-35.303-32.083c0.544-0.323,0.838-0.456,1.467-0.684
		c1.938,22.769,8.67,41.639,34.302,32.227C388.983,29.139,388.889,29.247,388.707,29.452z"/>
	<linearGradient id="SVGID_7_" gradientUnits="userSpaceOnUse" x1="349.7793" y1="17.7988" x2="387.2871" y2="17.7988">
		<stop  offset="0.2148" style="stop-color:#00AEEF"/>
		<stop  offset="0.538" style="stop-color:#91D9F8"/>
		<stop  offset="1" style="stop-color:#4BA79C"/>
	</linearGradient>
	<path fill="url(#SVGID_7_)" d="M387.036,31.372c-24.116,7.383-25.735-9.869-37.257-26.63c0.045-0.997,0.1-1.449,0.266-2.271
		c9.609,18.499,12.957,35.779,37.242,28.562C387.172,31.175,387.121,31.241,387.036,31.372z"/>
	<linearGradient id="SVGID_8_" gradientUnits="userSpaceOnUse" x1="367.085" y1="11.2271" x2="392.4297" y2="11.2271">
		<stop  offset="0.2055" style="stop-color:#2E3192"/>
		<stop  offset="0.8516" style="stop-color:#79B6E1"/>
	</linearGradient>
	<path fill="url(#SVGID_8_)" d="M392.43,17.684c-6.779,7.136-15.617,18.699-23.725,5.183c-6.114-10.191,6.691-22.135,11.626-29.005
		c0.603-0.191,0.903-0.296,1.503-0.524c-4.865,6.438-18.796,18.863-12.864,29.046c7.979,13.698,16.935,1.402,23.36-5.627
		C392.378,17.136,392.398,17.321,392.43,17.684z"/>
	<linearGradient id="SVGID_9_" gradientUnits="userSpaceOnUse" x1="352.248" y1="14.7515" x2="388.5547" y2="14.7515">
		<stop  offset="0.2055" style="stop-color:#2E3192"/>
		<stop  offset="0.8516" style="stop-color:#79B6E1"/>
	</linearGradient>
	<path fill="url(#SVGID_9_)" d="M388.3,29.901c-25.132,8.043-31.022-10.096-36.052-31.676c0.268-0.247,0.41-0.36,0.709-0.568
		c4.11,22.005,10.289,40.368,35.598,31.965C388.451,29.737,388.399,29.793,388.3,29.901z"/>
	<linearGradient id="SVGID_10_" gradientUnits="userSpaceOnUse" x1="363.6699" y1="13.4258" x2="392.2207" y2="13.4258">
		<stop  offset="0.2055" style="stop-color:#2E3192"/>
		<stop  offset="0.8516" style="stop-color:#79B6E1"/>
	</linearGradient>
	<path fill="url(#SVGID_10_)" d="M392.077,23.265c-26.101,20.238-31.488-6.841-22.575-27.718c0.579-0.024,0.871-0.039,1.458-0.075
		c-4.253,9.083-11.342,19.275-4.327,29.143c8.809,12.389,16.512,5.35,25.588-2.008C392.168,22.876,392.14,23.008,392.077,23.265z"/>
	<linearGradient id="SVGID_11_" gradientUnits="userSpaceOnUse" x1="359.2451" y1="13.561" x2="390.8945" y2="13.561">
		<stop  offset="0.2148" style="stop-color:#00AEEF"/>
		<stop  offset="0.538" style="stop-color:#91D9F8"/>
		<stop  offset="1" style="stop-color:#4BA79C"/>
	</linearGradient>
	<path fill="url(#SVGID_11_)" d="M390.444,27.166c-25.429,14.019-33.372-9.2-30.711-31.368c0.815-0.058,1.237-0.075,2.107-0.101
		c-4.257,22.106,3.493,45.964,29.054,30.688C390.721,26.712,390.629,26.868,390.444,27.166z"/>
	<linearGradient id="SVGID_12_" gradientUnits="userSpaceOnUse" x1="357.2734" y1="13.6074" x2="390.127" y2="13.6074">
		<stop  offset="0.2055" style="stop-color:#2E3192"/>
		<stop  offset="0.8516" style="stop-color:#79B6E1"/>
	</linearGradient>
	<path fill="url(#SVGID_12_)" d="M389.851,28.044c-25.88,10.73-33.003-8.708-32.558-31.97c0.426-0.071,0.646-0.101,1.094-0.152
		c-3.92,22.734,8.01,44.12,31.74,31.73C390.018,27.814,389.961,27.892,389.851,28.044z"/>
	<path fill="#83B9E4" d="M392.51,19.524c-7.566,7.313-16.074,17.288-24.446,4.162c-6.476-10.152,4.142-21.262,9.056-28.992
		c0.379-0.078,0.568-0.118,0.948-0.208c-4.944,7.486-16.178,18.813-9.806,28.986c8.297,13.243,16.91,2.799,24.242-4.473
		C392.509,19.213,392.51,19.317,392.51,19.524z"/>
	<path fill="#83B9E4" d="M391.694,24.558c-25.874,18.21-32.492-7.425-25.215-28.933c0.349-0.005,0.524-0.007,0.878-0.014
		c-7.777,21.34-1.479,47.372,24.46,28.581C391.77,24.34,391.745,24.414,391.694,24.558z"/>
	<path fill="#83B9E4" d="M387.828,30.413c-24.367,7.384-30.387-10.032-36.748-30.742c0.125-0.209,0.191-0.309,0.33-0.5
		c6.251,20.902,11.715,38.725,36.56,31.088C387.912,30.321,387.885,30.353,387.828,30.413z"/>
</g>
<g>
	<circle fill="#FFFFFF" stroke="#00AEEF" stroke-width="0.0626" stroke-miterlimit="10" cx="351.182" cy="2.265" r="1.607"/>
	<linearGradient id="SVGID_13_" gradientUnits="userSpaceOnUse" x1="350.8516" y1="1.9092" x2="352.4492" y2="1.9092">
		<stop  offset="0.3388" style="stop-color:#004D6D"/>
		<stop  offset="1" style="stop-color:#00ACBF"/>
	</linearGradient>
	<circle fill="url(#SVGID_13_)" stroke="#00AEEF" stroke-width="0.0626" stroke-miterlimit="10" cx="351.65" cy="1.909" r="0.799"/>
</g>
<g>
	<circle fill="#FFFFFF" stroke="#00AEEF" stroke-width="0.0626" stroke-miterlimit="10" cx="359.448" cy="-3.769" r="1.608"/>
	<linearGradient id="SVGID_14_" gradientUnits="userSpaceOnUse" x1="359.1182" y1="-4.1245" x2="360.7148" y2="-4.1245">
		<stop  offset="0.3388" style="stop-color:#004D6D"/>
		<stop  offset="1" style="stop-color:#00ACBF"/>
	</linearGradient>
	
		<circle fill="url(#SVGID_14_)" stroke="#00AEEF" stroke-width="0.0626" stroke-miterlimit="10" cx="359.917" cy="-4.125" r="0.798"/>
</g>
<g>
	<circle fill="#FFFFFF" stroke="#00AEEF" stroke-width="0.0414" stroke-miterlimit="10" cx="361.778" cy="-2.806" r="1.063"/>
	<linearGradient id="SVGID_15_" gradientUnits="userSpaceOnUse" x1="361.5605" y1="-3.041" x2="362.6152" y2="-3.041">
		<stop  offset="0.3388" style="stop-color:#004D6D"/>
		<stop  offset="1" style="stop-color:#00ACBF"/>
	</linearGradient>
	
		<circle fill="url(#SVGID_15_)" stroke="#00AEEF" stroke-width="0.0414" stroke-miterlimit="10" cx="362.088" cy="-3.041" r="0.527"/>
</g>
<g>
	<circle fill="#FFFFFF" stroke="#00AEEF" stroke-width="0.0414" stroke-miterlimit="10" cx="356.542" cy="-1.042" r="1.063"/>
	<linearGradient id="SVGID_16_" gradientUnits="userSpaceOnUse" x1="356.3242" y1="-1.2764" x2="357.3799" y2="-1.2764">
		<stop  offset="0.3388" style="stop-color:#004D6D"/>
		<stop  offset="1" style="stop-color:#00ACBF"/>
	</linearGradient>
	
		<circle fill="url(#SVGID_16_)" stroke="#00AEEF" stroke-width="0.0414" stroke-miterlimit="10" cx="356.852" cy="-1.277" r="0.528"/>
</g>
<g>
	<circle fill="#FFFFFF" stroke="#00AEEF" stroke-width="0.0414" stroke-miterlimit="10" cx="350.822" cy="5.998" r="1.062"/>
	<linearGradient id="SVGID_17_" gradientUnits="userSpaceOnUse" x1="350.6035" y1="5.7632" x2="351.6602" y2="5.7632">
		<stop  offset="0.3388" style="stop-color:#004D6D"/>
		<stop  offset="1" style="stop-color:#00ACBF"/>
	</linearGradient>
	
		<circle fill="url(#SVGID_17_)" stroke="#00AEEF" stroke-width="0.0414" stroke-miterlimit="10" cx="351.132" cy="5.763" r="0.528"/>
</g>
<g>
	<circle fill="#FFFFFF" stroke="#00AEEF" stroke-width="0.0414" stroke-miterlimit="10" cx="354.669" cy="-1.042" r="1.063"/>
	<linearGradient id="SVGID_18_" gradientUnits="userSpaceOnUse" x1="354.4512" y1="-1.2764" x2="355.5068" y2="-1.2764">
		<stop  offset="0.3388" style="stop-color:#004D6D"/>
		<stop  offset="1" style="stop-color:#00ACBF"/>
	</linearGradient>
	
		<circle fill="url(#SVGID_18_)" stroke="#00AEEF" stroke-width="0.0414" stroke-miterlimit="10" cx="354.979" cy="-1.277" r="0.528"/>
</g>
<g>
	<circle fill="#FFFFFF" stroke="#00AEEF" stroke-width="0.0414" stroke-miterlimit="10" cx="356.542" cy="-3.769" r="1.063"/>
	<linearGradient id="SVGID_19_" gradientUnits="userSpaceOnUse" x1="356.3242" y1="-4.0039" x2="357.3799" y2="-4.0039">
		<stop  offset="0.3388" style="stop-color:#004D6D"/>
		<stop  offset="1" style="stop-color:#00ACBF"/>
	</linearGradient>
	
		<circle fill="url(#SVGID_19_)" stroke="#00AEEF" stroke-width="0.0414" stroke-miterlimit="10" cx="356.852" cy="-4.004" r="0.528"/>
</g>
<g>
	<circle fill="#FFFFFF" stroke="#00AEEF" stroke-width="0.0414" stroke-miterlimit="10" cx="349.759" cy="4.935" r="1.063"/>
	<linearGradient id="SVGID_20_" gradientUnits="userSpaceOnUse" x1="349.541" y1="4.7002" x2="350.5977" y2="4.7002">
		<stop  offset="0.3388" style="stop-color:#004D6D"/>
		<stop  offset="1" style="stop-color:#00ACBF"/>
	</linearGradient>
	<circle fill="url(#SVGID_20_)" stroke="#00AEEF" stroke-width="0.0414" stroke-miterlimit="10" cx="350.069" cy="4.7" r="0.528"/>
</g>
<g>
	<circle fill="#FFFFFF" stroke="#00AEEF" stroke-width="0.0253" stroke-miterlimit="10" cx="352.343" cy="0.008" r="0.649"/>
	<linearGradient id="SVGID_21_" gradientUnits="userSpaceOnUse" x1="352.209" y1="-0.1357" x2="352.8545" y2="-0.1357">
		<stop  offset="0.3388" style="stop-color:#004D6D"/>
		<stop  offset="1" style="stop-color:#00ACBF"/>
	</linearGradient>
	
		<circle fill="url(#SVGID_21_)" stroke="#00AEEF" stroke-width="0.0253" stroke-miterlimit="10" cx="352.532" cy="-0.136" r="0.323"/>
</g>
<g>
	<circle fill="#FFFFFF" stroke="#00AEEF" stroke-width="0.0253" stroke-miterlimit="10" cx="353.642" cy="-1.691" r="0.649"/>
	<linearGradient id="SVGID_22_" gradientUnits="userSpaceOnUse" x1="353.5078" y1="-1.834" x2="354.1523" y2="-1.834">
		<stop  offset="0.3388" style="stop-color:#004D6D"/>
		<stop  offset="1" style="stop-color:#00ACBF"/>
	</linearGradient>
	
		<circle fill="url(#SVGID_22_)" stroke="#00AEEF" stroke-width="0.0253" stroke-miterlimit="10" cx="353.83" cy="-1.834" r="0.322"/>
</g>
<g>
	<circle fill="#FFFFFF" stroke="#00AEEF" stroke-width="0.0253" stroke-miterlimit="10" cx="357.191" cy="-2.34" r="0.649"/>
	<linearGradient id="SVGID_23_" gradientUnits="userSpaceOnUse" x1="357.0586" y1="-2.4834" x2="357.7031" y2="-2.4834">
		<stop  offset="0.3388" style="stop-color:#004D6D"/>
		<stop  offset="1" style="stop-color:#00ACBF"/>
	</linearGradient>
	
		<circle fill="url(#SVGID_23_)" stroke="#00AEEF" stroke-width="0.0253" stroke-miterlimit="10" cx="357.381" cy="-2.484" r="0.322"/>
</g>
<g>
	<circle fill="#FFFFFF" stroke="#00AEEF" stroke-width="0.0253" stroke-miterlimit="10" cx="361.56" cy="-4.832" r="0.649"/>
	<linearGradient id="SVGID_24_" gradientUnits="userSpaceOnUse" x1="361.4268" y1="-4.9756" x2="362.0723" y2="-4.9756">
		<stop  offset="0.3388" style="stop-color:#004D6D"/>
		<stop  offset="1" style="stop-color:#00ACBF"/>
	</linearGradient>
	
		<circle fill="url(#SVGID_24_)" stroke="#00AEEF" stroke-width="0.0253" stroke-miterlimit="10" cx="361.75" cy="-4.976" r="0.323"/>
</g>
<g>
	<circle fill="#FFFFFF" stroke="#00AEEF" stroke-width="0.0253" stroke-miterlimit="10" cx="364.356" cy="-4.004" r="0.649"/>
	<linearGradient id="SVGID_25_" gradientUnits="userSpaceOnUse" x1="364.2227" y1="-4.1475" x2="364.8672" y2="-4.1475">
		<stop  offset="0.3388" style="stop-color:#004D6D"/>
		<stop  offset="1" style="stop-color:#00ACBF"/>
	</linearGradient>
	
		<circle fill="url(#SVGID_25_)" stroke="#00AEEF" stroke-width="0.0253" stroke-miterlimit="10" cx="364.545" cy="-4.147" r="0.322"/>
</g>
<g>
	<circle fill="#FFFFFF" stroke="#00AEEF" stroke-width="0.0253" stroke-miterlimit="10" cx="368.027" cy="-4.47" r="0.649"/>
	<linearGradient id="SVGID_26_" gradientUnits="userSpaceOnUse" x1="367.8945" y1="-4.6133" x2="368.5391" y2="-4.6133">
		<stop  offset="0.3388" style="stop-color:#004D6D"/>
		<stop  offset="1" style="stop-color:#00ACBF"/>
	</linearGradient>
	
		<circle fill="url(#SVGID_26_)" stroke="#00AEEF" stroke-width="0.0253" stroke-miterlimit="10" cx="368.217" cy="-4.613" r="0.322"/>
</g>
<g>
	<circle fill="#FFFFFF" stroke="#00AEEF" stroke-width="0.0253" stroke-miterlimit="10" cx="372.366" cy="-4.832" r="0.649"/>
	<linearGradient id="SVGID_27_" gradientUnits="userSpaceOnUse" x1="372.2324" y1="-4.9756" x2="372.877" y2="-4.9756">
		<stop  offset="0.3388" style="stop-color:#004D6D"/>
		<stop  offset="1" style="stop-color:#00ACBF"/>
	</linearGradient>
	
		<circle fill="url(#SVGID_27_)" stroke="#00AEEF" stroke-width="0.0253" stroke-miterlimit="10" cx="372.555" cy="-4.976" r="0.322"/>
</g>
<g>
	<circle fill="#FFFFFF" stroke="#00AEEF" stroke-width="0.0253" stroke-miterlimit="10" cx="369.862" cy="-4.004" r="0.649"/>
	<linearGradient id="SVGID_28_" gradientUnits="userSpaceOnUse" x1="369.7295" y1="-4.1475" x2="370.375" y2="-4.1475">
		<stop  offset="0.3388" style="stop-color:#004D6D"/>
		<stop  offset="1" style="stop-color:#00ACBF"/>
	</linearGradient>
	
		<circle fill="url(#SVGID_28_)" stroke="#00AEEF" stroke-width="0.0253" stroke-miterlimit="10" cx="370.052" cy="-4.147" r="0.323"/>
</g>
<g>
	<circle fill="#FFFFFF" stroke="#00AEEF" stroke-width="0.0253" stroke-miterlimit="10" cx="375.536" cy="-5.481" r="0.649"/>
	<linearGradient id="SVGID_29_" gradientUnits="userSpaceOnUse" x1="375.4033" y1="-5.625" x2="376.0488" y2="-5.625">
		<stop  offset="0.3388" style="stop-color:#004D6D"/>
		<stop  offset="1" style="stop-color:#00ACBF"/>
	</linearGradient>
	
		<circle fill="url(#SVGID_29_)" stroke="#00AEEF" stroke-width="0.0253" stroke-miterlimit="10" cx="375.726" cy="-5.625" r="0.323"/>
</g>
<g>
	<circle fill="#FFFFFF" stroke="#00AEEF" stroke-width="0.0253" stroke-miterlimit="10" cx="378.056" cy="-5.947" r="0.649"/>
	<linearGradient id="SVGID_30_" gradientUnits="userSpaceOnUse" x1="377.9219" y1="-6.0908" x2="378.5664" y2="-6.0908">
		<stop  offset="0.3388" style="stop-color:#004D6D"/>
		<stop  offset="1" style="stop-color:#00ACBF"/>
	</linearGradient>
	
		<circle fill="url(#SVGID_30_)" stroke="#00AEEF" stroke-width="0.0253" stroke-miterlimit="10" cx="378.244" cy="-6.091" r="0.322"/>
</g>
<g>
	<circle fill="#FFFFFF" stroke="#00AEEF" stroke-width="0.0253" stroke-miterlimit="10" cx="381.962" cy="-6.596" r="0.649"/>
	<linearGradient id="SVGID_31_" gradientUnits="userSpaceOnUse" x1="381.8281" y1="-6.7402" x2="382.4727" y2="-6.7402">
		<stop  offset="0.3388" style="stop-color:#004D6D"/>
		<stop  offset="1" style="stop-color:#00ACBF"/>
	</linearGradient>
	<circle fill="url(#SVGID_31_)" stroke="#00AEEF" stroke-width="0.0253" stroke-miterlimit="10" cx="382.15" cy="-6.74" r="0.322"/>
</g>
<g>
	<circle fill="#FFFFFF" stroke="#00AEEF" stroke-width="0.0253" stroke-miterlimit="10" cx="378.704" cy="-4.291" r="0.649"/>
	<linearGradient id="SVGID_32_" gradientUnits="userSpaceOnUse" x1="378.5713" y1="-4.4346" x2="379.2158" y2="-4.4346">
		<stop  offset="0.3388" style="stop-color:#004D6D"/>
		<stop  offset="1" style="stop-color:#00ACBF"/>
	</linearGradient>
	
		<circle fill="url(#SVGID_32_)" stroke="#00AEEF" stroke-width="0.0253" stroke-miterlimit="10" cx="378.894" cy="-4.435" r="0.322"/>
</g>
<g>
	<circle fill="#FFFFFF" stroke="#00AEEF" stroke-width="0.0253" stroke-miterlimit="10" cx="384.048" cy="-7.895" r="0.649"/>
	<linearGradient id="SVGID_33_" gradientUnits="userSpaceOnUse" x1="383.9141" y1="-8.0381" x2="384.5586" y2="-8.0381">
		<stop  offset="0.3388" style="stop-color:#004D6D"/>
		<stop  offset="1" style="stop-color:#00ACBF"/>
	</linearGradient>
	
		<circle fill="url(#SVGID_33_)" stroke="#00AEEF" stroke-width="0.0253" stroke-miterlimit="10" cx="384.236" cy="-8.038" r="0.322"/>
</g>
<g>
	<circle fill="#FFFFFF" stroke="#00AEEF" stroke-width="0.0253" stroke-miterlimit="10" cx="374.238" cy="-4.125" r="0.649"/>
	<linearGradient id="SVGID_34_" gradientUnits="userSpaceOnUse" x1="374.1055" y1="-4.2676" x2="374.75" y2="-4.2676">
		<stop  offset="0.3388" style="stop-color:#004D6D"/>
		<stop  offset="1" style="stop-color:#00ACBF"/>
	</linearGradient>
	
		<circle fill="url(#SVGID_34_)" stroke="#00AEEF" stroke-width="0.0253" stroke-miterlimit="10" cx="374.428" cy="-4.268" r="0.322"/>
</g>
<g>
	<circle fill="#FFFFFF" stroke="#00AEEF" stroke-width="0.0253" stroke-miterlimit="10" cx="354.802" cy="-2.484" r="0.649"/>
	<linearGradient id="SVGID_35_" gradientUnits="userSpaceOnUse" x1="354.6689" y1="-2.627" x2="355.3145" y2="-2.627">
		<stop  offset="0.3388" style="stop-color:#004D6D"/>
		<stop  offset="1" style="stop-color:#00ACBF"/>
	</linearGradient>
	
		<circle fill="url(#SVGID_35_)" stroke="#00AEEF" stroke-width="0.0253" stroke-miterlimit="10" cx="354.992" cy="-2.627" r="0.323"/>
</g>
<g>
	<circle fill="#FFFFFF" stroke="#00AEEF" stroke-width="0.0253" stroke-miterlimit="10" cx="354.29" cy="0.657" r="0.649"/>
	<linearGradient id="SVGID_36_" gradientUnits="userSpaceOnUse" x1="354.1572" y1="0.5137" x2="354.8027" y2="0.5137">
		<stop  offset="0.3388" style="stop-color:#004D6D"/>
		<stop  offset="1" style="stop-color:#00ACBF"/>
	</linearGradient>
	<circle fill="url(#SVGID_36_)" stroke="#00AEEF" stroke-width="0.0253" stroke-miterlimit="10" cx="354.48" cy="0.514" r="0.323"/>
</g>
<g>
	<circle fill="#FFFFFF" stroke="#00AEEF" stroke-width="0.0253" stroke-miterlimit="10" cx="349.759" cy="7.061" r="0.649"/>
	<linearGradient id="SVGID_37_" gradientUnits="userSpaceOnUse" x1="349.626" y1="6.918" x2="350.2715" y2="6.918">
		<stop  offset="0.3388" style="stop-color:#004D6D"/>
		<stop  offset="1" style="stop-color:#00ACBF"/>
	</linearGradient>
	
		<circle fill="url(#SVGID_37_)" stroke="#00AEEF" stroke-width="0.0253" stroke-miterlimit="10" cx="349.949" cy="6.917" r="0.323"/>
</g>
<g>
	<g>
		<path fill="#FFFFFF" d="M61.726,211.943c0.521,0.688,1.05,1.371,1.585,2.05c-0.233,0.341-0.446,0.626-0.639,0.855
			c-1.009,1.206-2.379,1.705-4.129,1.432c-1.747-0.273-3.589-1.282-5.453-3.057c-4.688-4.504-4.837-8.849-0.828-12.426
			c1.897-1.724,4.026-2.457,6.349-2.321c2.327,0.138,4.392,1.111,6.309,2.925c2.984,2.806,3.473,5.364,1.302,7.955
			c-0.82-0.294-1.641-0.599-2.462-0.915c0.336-0.336,0.59-0.603,0.763-0.798c1.577-1.798,1.513-3.427-0.14-4.974
			c-1.739-1.637-4.373-0.71-7.96,2.875c-3.08,3.071-3.558,5.706-1.351,7.77c0.907,0.845,1.923,1.26,3.022,1.245
			c1.101-0.017,2.013-0.456,2.745-1.298C61.071,212.994,61.365,212.554,61.726,211.943z"/>
		<path fill="#FFFFFF" d="M73.943,214.347c3.782,2.741,4.642,5.697,2.401,9.237c-2.226,3.512-5.549,3.945-9.768,0.891
			c-4.209-3.094-4.875-6.444-2.214-9.638C67.039,211.614,70.168,211.574,73.943,214.347z M73.312,215.191
			c-0.922-0.674-2.42,0.366-4.506,3.142c-2.085,2.774-2.63,4.542-1.621,5.279c1.019,0.742,2.532-0.318,4.53-3.156
			C73.713,217.617,74.242,215.869,73.312,215.191z"/>
		<path fill="#FFFFFF" d="M95.09,240.045c-1.699-0.689-3.388-1.415-5.063-2.177c1.24-2.724,2.48-5.448,3.72-8.172
			c0.324-0.713,0.24-1.18-0.25-1.407c-1.131-0.523-2.182,0.215-3.163,2.245c-0.98,2.034-1.959,4.068-2.939,6.103
			c-1.662-0.8-3.311-1.636-4.944-2.509c1.379-2.585,2.759-5.169,4.138-7.754c0.42-0.788,0.415-1.298-0.014-1.529
			c-1.119-0.607-2.225,0.054-3.328,2.011c-1.104,1.965-2.207,3.931-3.31,5.896c-1.619-0.91-3.223-1.855-4.811-2.838
			c2.101-3.401,4.201-6.802,6.302-10.203c1.465,0.907,2.978,1.684,4.525,2.326c-0.337,0.6-0.674,1.199-1.011,1.8
			c1.728-0.599,3.333-0.5,4.878,0.296c1.292,0.665,1.973,1.712,2.062,3.187c1.592-0.683,3.125-0.686,4.657-0.013
			c2.106,0.922,2.797,2.271,2.043,4.146C97.418,234.316,96.254,237.181,95.09,240.045z"/>
		<path fill="#FFFFFF" d="M119.191,247.258c-1.779-0.354-3.552-0.745-5.318-1.172c0.707-2.908,1.414-5.815,2.122-8.724
			c0.184-0.761,0.018-1.203-0.5-1.331c-1.193-0.298-2.078,0.628-2.661,2.806c-0.581,2.182-1.161,4.363-1.741,6.545
			c-1.758-0.466-3.509-0.967-5.25-1.505c0.868-2.798,1.735-5.596,2.604-8.395c0.264-0.853,0.166-1.351-0.291-1.494
			c-1.194-0.378-2.145,0.485-2.859,2.614c-0.712,2.139-1.425,4.276-2.138,6.414c-1.732-0.575-3.455-1.187-5.166-1.835
			c1.418-3.736,2.836-7.474,4.254-11.211c1.58,0.599,3.184,1.062,4.798,1.389c-0.217,0.653-0.435,1.306-0.653,1.958
			c1.565-0.921,3.137-1.137,4.78-0.655c1.374,0.402,2.225,1.298,2.579,2.726c1.421-0.974,2.909-1.27,4.52-0.901
			c2.215,0.503,3.135,1.697,2.744,3.679C120.406,241.196,119.798,244.227,119.191,247.258z"/>
		<path fill="#FFFFFF" d="M137.175,237.31c-0.28,4.077-0.561,8.154-0.841,12.231c-1.804-0.124-3.606-0.283-5.405-0.479
			c0.07-0.633,0.139-1.266,0.208-1.898c-1.377,1.281-3.073,1.797-5.022,1.515c-2.633-0.387-3.76-1.648-3.396-3.667
			c0.528-2.985,1.055-5.972,1.583-8.957c1.65,0.227,3.296,0.376,4.932,0.452c-0.415,3.071-0.83,6.142-1.245,9.213
			c-0.109,0.798,0.138,1.239,0.741,1.316c1.599,0.201,2.548-1.102,2.846-3.867c0.219-1.996,0.438-3.992,0.656-5.988
			C133.881,237.298,135.531,237.339,137.175,237.31z"/>
		<path fill="#FFFFFF" d="M153.526,249.616c-1.805,0.107-3.612,0.179-5.419,0.213c-0.057-2.924-0.113-5.849-0.17-8.772
			c-0.018-0.893-0.313-1.334-0.89-1.326c-0.586,0.007-1.091,0.363-1.524,1.07s-0.658,1.541-0.664,2.507
			c-0.011,2.182-0.023,4.362-0.034,6.544c-1.808-0.009-3.615-0.055-5.421-0.137c0.182-3.987,0.365-7.976,0.547-11.963
			c1.693,0.077,3.344,0.018,4.938-0.171c-0.004,0.746-0.008,1.493-0.012,2.24c1.254-1.479,2.729-2.232,4.491-2.287
			c2.277-0.075,3.479,0.858,3.607,2.897C153.16,243.493,153.343,246.555,153.526,249.616z"/>
		<path fill="#FFFFFF" d="M156.625,249.396c-0.33-3.966-0.659-7.933-0.989-11.898c1.538-0.127,3.169-0.398,4.877-0.823
			c0.503,4.056,1.007,8.111,1.511,12.167C160.227,249.062,158.428,249.248,156.625,249.396z M157.649,232.643
			c1.466-0.152,2.263,0.269,2.393,1.306c0.129,1.034-0.56,1.65-2.069,1.808c-1.51,0.154-2.31-0.309-2.396-1.347
			C155.491,233.367,156.183,232.792,157.649,232.643z"/>
		<path fill="#FFFFFF" d="M170.604,235.351c0.093,0.438,0.185,0.874,0.276,1.312c-0.727,0.151-1.454,0.297-2.182,0.435
			c0.529,2.769,1.059,5.537,1.588,8.305c0.1,0.521,0.356,0.741,0.773,0.66c0.299-0.059,0.442-0.269,0.431-0.629
			c0.508-0.061,1.016-0.125,1.523-0.191c-0.152,1.307-1.36,2.208-3.623,2.617c-2.698,0.48-4.188-0.255-4.455-2.081
			c-0.392-2.615-0.782-5.23-1.173-7.846c-0.552,0.082-1.104,0.16-1.656,0.234c-0.06-0.442-0.12-0.885-0.18-1.327
			c0.546-0.074,1.092-0.151,1.638-0.232c-0.104-0.695-0.208-1.392-0.312-2.087c1.601-0.653,3.095-1.51,4.464-2.56
			c0.243,1.273,0.486,2.547,0.73,3.821C169.166,235.645,169.886,235.501,170.604,235.351z"/>
		<path fill="#FFFFFF" d="M183.265,231.952c-0.609,4.927-1.453,9.872-2.533,14.818c-0.443,2.033-1.495,3.263-3.106,3.646
			c-1.561,0.37-2.741,0.085-3.516-0.824c0.55-0.485,1.094-0.973,1.633-1.465c0.35,0.854,0.874,1.2,1.567,1.036
			c0.783-0.186,1.292-0.854,1.512-1.994c0.062-0.309,0.122-0.618,0.182-0.927c-3.009-3.548-5.843-7.188-8.498-10.907
			c1.777-0.37,3.548-0.779,5.311-1.229c1.475,2.043,2.997,4.062,4.569,6.058c0.436-2.556,0.81-5.108,1.122-7.657
			C182.094,232.326,182.68,232.142,183.265,231.952z"/>
		<path fill="#FFFFFF" d="M196.948,239.639c-2.071-4.983-4.143-9.967-6.215-14.95c2.405-0.997,4.782-2.078,7.129-3.241
			c3.97-1.983,6.68-1.775,8.271,0.983c1.598,2.754,0.078,5.561-4.747,7.938c-0.592,0.288-1.186,0.572-1.78,0.852
			c0.938,2,1.877,4.001,2.816,6.002C200.612,238.07,198.787,238.876,196.948,239.639z M198.972,229.866
			c0.382-0.179,0.763-0.36,1.144-0.543c1.853-0.896,2.248-2.382,1.213-4.389c-0.973-1.888-2.318-2.375-4.063-1.532
			c-0.36,0.174-0.722,0.346-1.084,0.515C197.111,225.9,198.041,227.883,198.972,229.866z"/>
		<path fill="#FFFFFF" d="M212.49,217.553c3.865-2.57,6.968-2.367,9.49,0.977c2.51,3.316,1.711,6.613-2.599,9.48
			c-4.334,2.842-7.625,2.25-9.688-1.36C207.617,223.01,208.604,220.102,212.49,217.553z M213.059,218.441
			c-0.946,0.624-0.492,2.39,1.373,5.318c1.864,2.928,3.32,4.062,4.356,3.379c1.044-0.691,0.583-2.482-1.372-5.351
			C215.462,218.919,214.012,217.811,213.059,218.441z"/>
		<path fill="#FFFFFF" d="M224.973,208.092c3.579-3.115,6.728-3.363,9.662-0.375c2.919,2.96,2.505,6.383-1.486,9.858
			c-4.019,3.451-7.394,3.311-9.898-0.007C220.729,214.223,221.37,211.188,224.973,208.092z M225.649,208.9
			c-0.877,0.757-0.209,2.457,2.015,5.122c2.225,2.664,3.823,3.594,4.783,2.765c0.967-0.838,0.29-2.564-2.017-5.156
			C228.122,209.038,226.533,208.135,225.649,208.9z"/>
		<path fill="#FFFFFF" d="M232.429,195.012c4.049,3.685,8.097,7.368,12.146,11.053c-1.324,1.456-2.674,2.875-4.045,4.259
			c-3.827-3.803-7.654-7.604-11.482-11.407C230.045,197.91,231.182,196.617,232.429,195.012z"/>
	</g>
</g>
<rect x="333" y="280" fill="none" width="165.332" height="34"/>
<text transform="matrix(1 0 0 1 333 301.54)" font-family="'HelveticaLTStd-Roman'" font-size="30">Pool</text>
<g id="_x36_agKy6_1_">
	
		<image overflow="visible" width="693" height="1203" id="_x36_agKy6_2_" xlink:href="C47AFC12BFA63DEA.jpg"  transform="matrix(0.2349 0 0 0.2349 163.2754 -399.6675)">
	</image>
</g>
<g>
	
		<linearGradient id="SVGID_38_" gradientUnits="userSpaceOnUse" x1="-29.4458" y1="531.8555" x2="45.458" y2="531.8555" gradientTransform="matrix(0.1086 -0.9941 0.9941 0.1086 -172.3037 150.8218)">
		<stop  offset="0.3388" style="stop-color:#00678F"/>
		<stop  offset="0.6467" style="stop-color:#00ACBF"/>
		<stop  offset="1" style="stop-color:#FFFFFF"/>
	</linearGradient>
	<path fill="url(#SVGID_38_)" d="M371.977,239.882c0,0,6.501-7.396-11.683-21.255c0,0-20.228-13.804-21.619-22.532
		c0,0-3.91-12.786,2.343-21.45c0,0,4.661-9.514,17.875-11.312c0,0,11.727-0.698,17.334,7.593c0,0,7.724,8.756,1.756,19.124
		c0,0-3.883,6.096-10.077,7.324C367.905,197.374,382,228.396,371.977,239.882z"/>
	<path fill="none" stroke="#FFFFFF" stroke-width="0.6883" stroke-miterlimit="10" d="M372.422,239.999
		c5.082-16.42-27.836-27.579-33.499-43.808c-4.531-12.983,2.32-27.182,15.303-31.714c10.388-3.624,21.746,1.856,25.372,12.243
		c2.898,8.31-1.486,17.396-9.795,20.298c-6.648,2.319-13.917-1.189-16.238-7.837c-1.855-5.317,0.951-11.133,6.27-12.99
		c4.254-1.483,8.906,0.761,10.392,5.016c1.188,3.403-0.608,7.125-4.013,8.313c-2.721,0.95-5.7-0.487-6.65-3.21
		c-0.76-2.179,0.925-3.115,3.104-3.876"/>
</g>
<g>
	
		<linearGradient id="SVGID_39_" gradientUnits="userSpaceOnUse" x1="78.2607" y1="508.5273" x2="137.9048" y2="508.5273" gradientTransform="matrix(0.2339 -0.9723 0.9723 0.2339 -159.2197 186.3604)">
		<stop  offset="0.3388" style="stop-color:#00678F"/>
		<stop  offset="0.6467" style="stop-color:#00ACBF"/>
		<stop  offset="1" style="stop-color:#FFFFFF"/>
	</linearGradient>
	<path fill="url(#SVGID_39_)" d="M368.123,232.71c0,0,5.881-5.186-7.079-17.969c0,0-14.583-12.948-14.798-19.981
		c0,0-1.797-10.495,4.019-16.706c0,0,4.644-7.045,15.261-7.128c0,0,9.333,0.634,12.924,7.75c0,0,5.217,7.695-0.546,15.281
		c0,0-3.684,4.423-8.698,4.767C369.205,198.724,377.201,224.651,368.123,232.71z"/>
	<path fill="none" stroke="#FFFFFF" stroke-width="0.5481" stroke-miterlimit="10" d="M368.462,232.848
		c5.675-12.456-19.196-24.597-22.03-37.987c-2.267-10.713,4.58-21.235,15.293-23.502c8.57-1.813,16.987,3.664,18.801,12.234
		c1.451,6.856-2.932,13.591-9.786,15.042c-5.486,1.159-10.874-2.346-12.034-7.831c-0.928-4.388,1.877-8.697,6.265-9.626
		c3.509-0.743,6.958,1.501,7.7,5.012c0.595,2.808-1.199,5.565-4.008,6.16c-2.246,0.476-4.454-0.96-4.93-3.207
		c-0.379-1.797,1.045-2.367,2.844-2.748"/>
</g>
<g>
	
		<linearGradient id="SVGID_40_" gradientUnits="userSpaceOnUse" x1="366.5732" y1="241.6572" x2="475.3926" y2="241.6572" gradientTransform="matrix(1 0 0 -1 0 489.3906)">
		<stop  offset="0.3388" style="stop-color:#00678F"/>
		<stop  offset="0.6467" style="stop-color:#00ACBF"/>
		<stop  offset="1" style="stop-color:#FFFFFF"/>
	</linearGradient>
	<path fill="url(#SVGID_40_)" d="M366.573,220.308c0,0,11.707-8.222,28.854,20.224c0,0,16.746,31.392,29.132,34.776
		c0,0,17.849,7.664,31.349,0c0,0,14.478-5.231,19.155-24.031c0,0,2.857-16.826-8.234-26.23c0,0-11.424-12.536-27.34-5.553
		c0,0-9.416,4.646-12.166,13.397C427.322,232.891,384.741,207.643,366.573,220.308z"/>
	<path fill="none" stroke="#FFFFFF" stroke-miterlimit="10" d="M366.474,219.646c24.517-4.752,35.439,44.549,57.985,55.288
		c18.035,8.592,39.621,0.937,48.213-17.1c6.875-14.43,0.75-31.698-13.68-38.572c-11.543-5.498-25.357-0.599-30.857,10.944
		c-4.398,9.235-0.479,20.287,8.756,24.687c7.388,3.52,16.229,0.383,19.749-7.005c2.815-5.909,0.307-12.983-5.604-15.799
		c-4.728-2.252-10.387-0.245-12.64,4.483c-1.801,3.781-0.195,8.309,3.586,10.111c3.026,1.441,4.646-0.844,6.088-3.871"/>
</g>
<g>
	
		<linearGradient id="SVGID_41_" gradientUnits="userSpaceOnUse" x1="426.707" y1="236.3135" x2="516.5615" y2="236.3135" gradientTransform="matrix(1 0 0 -1 0 489.3906)">
		<stop  offset="0.3388" style="stop-color:#00678F"/>
		<stop  offset="0.6467" style="stop-color:#00ACBF"/>
		<stop  offset="1" style="stop-color:#FFFFFF"/>
	</linearGradient>
	<path fill="url(#SVGID_41_)" d="M426.707,230.431c0,0,9.667-6.789,23.825,16.699c0,0,13.827,25.92,24.054,28.715
		c0,0,14.738,6.329,25.887,0c0,0,11.953-4.319,15.816-19.842c0,0,2.359-13.894-6.799-21.66c0,0-9.434-10.352-22.576-4.584
		c0,0-7.775,3.836-10.045,11.062C476.869,240.821,441.709,219.974,426.707,230.431z"/>
	<path fill="none" stroke="#FFFFFF" stroke-width="0.8257" stroke-miterlimit="10" d="M426.625,229.886
		c20.243-3.924,29.264,36.783,47.879,45.652c14.893,7.094,32.717,0.772,39.812-14.12c5.674-11.915,0.617-26.175-11.297-31.851
		c-9.531-4.539-20.939-0.494-25.48,9.037c-3.631,7.627-0.395,16.752,7.23,20.385c6.1,2.906,13.4,0.316,16.307-5.785
		c2.326-4.879,0.254-10.72-4.627-13.045c-3.904-1.859-8.576-0.201-10.436,3.703c-1.488,3.121-0.162,6.859,2.961,8.348
		c2.498,1.191,3.836-0.695,5.025-3.195"/>
</g>
<g>
	
		<linearGradient id="SVGID_42_" gradientUnits="userSpaceOnUse" x1="434.1826" y1="256.1836" x2="509.0869" y2="256.1836" gradientTransform="matrix(1 0 0 -1 0 489.3906)">
		<stop  offset="0.3388" style="stop-color:#00678F"/>
		<stop  offset="0.6467" style="stop-color:#00ACBF"/>
		<stop  offset="1" style="stop-color:#FFFFFF"/>
	</linearGradient>
	<path fill="url(#SVGID_42_)" d="M434.183,214.329c0,0,8.059-5.659,19.86,13.921c0,0,11.527,21.607,20.053,23.938
		c0,0,12.285,5.275,21.578,0c0,0,9.965-3.601,13.186-16.541c0,0,1.967-11.582-5.666-18.056c0,0-7.867-8.629-18.822-3.822
		c0,0-6.48,3.198-8.373,9.223C475.998,222.991,446.688,205.612,434.183,214.329z"/>
	<path fill="none" stroke="#FFFFFF" stroke-width="0.6883" stroke-miterlimit="10" d="M434.114,213.874
		c16.875-3.271,24.394,30.665,39.913,38.057c12.414,5.914,27.273,0.645,33.188-11.77c4.73-9.933,0.516-21.819-9.416-26.551
		c-7.947-3.784-17.457-0.412-21.242,7.533c-3.027,6.357-0.328,13.964,6.027,16.992c5.086,2.423,11.172,0.264,13.594-4.821
		c1.938-4.067,0.211-8.937-3.857-10.875c-3.254-1.55-7.148-0.169-8.699,3.086c-1.24,2.603-0.135,5.72,2.469,6.96
		c2.082,0.992,3.197-0.581,4.189-2.664"/>
</g>
<g>
	
		<linearGradient id="SVGID_43_" gradientUnits="userSpaceOnUse" x1="356.1387" y1="257.8223" x2="431.043" y2="257.8223" gradientTransform="matrix(1 0 0 -1 0 489.3906)">
		<stop  offset="0.3388" style="stop-color:#00678F"/>
		<stop  offset="0.6467" style="stop-color:#00ACBF"/>
		<stop  offset="1" style="stop-color:#FFFFFF"/>
	</linearGradient>
	<path fill="url(#SVGID_43_)" d="M356.139,212.689c0,0,8.059-5.659,19.861,13.921c0,0,11.527,21.607,20.052,23.938
		c0,0,12.286,5.275,21.579,0c0,0,9.964-3.601,13.185-16.541c0,0,1.967-11.582-5.666-18.056c0,0-7.866-8.629-18.821-3.822
		c0,0-6.48,3.198-8.373,9.223C397.955,221.352,368.645,203.973,356.139,212.689z"/>
	<path fill="none" stroke="#FFFFFF" stroke-width="0.6883" stroke-miterlimit="10" d="M356.07,212.234
		c16.875-3.271,24.395,30.665,39.913,38.057c12.415,5.914,27.273,0.645,33.188-11.77c4.73-9.933,0.516-21.819-9.416-26.551
		c-7.946-3.784-17.456-0.412-21.241,7.533c-3.027,6.357-0.329,13.964,6.027,16.992c5.085,2.423,11.171,0.264,13.594-4.821
		c1.938-4.067,0.211-8.937-3.857-10.875c-3.254-1.55-7.149-0.169-8.699,3.086c-1.24,2.603-0.136,5.72,2.468,6.96
		c2.083,0.992,3.198-0.581,4.19-2.664"/>
</g>
<g>
	
		<linearGradient id="SVGID_44_" gradientUnits="userSpaceOnUse" x1="397.1592" y1="264.3086" x2="456.8037" y2="264.3086" gradientTransform="matrix(1 0 0 -1 0 489.3906)">
		<stop  offset="0.3388" style="stop-color:#00678F"/>
		<stop  offset="0.6467" style="stop-color:#00ACBF"/>
		<stop  offset="1" style="stop-color:#FFFFFF"/>
	</linearGradient>
	<path fill="url(#SVGID_44_)" d="M397.159,210.05c0,0,6.417-4.506,15.814,11.085c0,0,9.179,17.206,15.968,19.061
		c0,0,9.783,4.201,17.182,0c0,0,7.936-2.867,10.5-13.171c0,0,1.566-9.223-4.514-14.378c0,0-6.262-6.871-14.985-3.043
		c0,0-5.161,2.547-6.668,7.343C430.456,216.946,407.117,203.108,397.159,210.05z"/>
	<path fill="none" stroke="#FFFFFF" stroke-width="0.5481" stroke-miterlimit="10" d="M397.104,209.688
		c13.438-2.604,19.425,24.417,31.782,30.304c9.885,4.709,21.717,0.514,26.426-9.372c3.768-7.909,0.411-17.374-7.498-21.142
		c-6.326-3.014-13.898-0.328-16.913,5.998c-2.411,5.062-0.263,11.12,4.8,13.531c4.049,1.929,8.895,0.21,10.824-3.84
		c1.543-3.238,0.168-7.116-3.072-8.659c-2.591-1.234-5.692-0.135-6.928,2.457c-0.986,2.073-0.107,4.555,1.967,5.542
		c1.658,0.79,2.545-0.462,3.336-2.121"/>
</g>
<g>
	
		<linearGradient id="SVGID_45_" gradientUnits="userSpaceOnUse" x1="-203.2598" y1="328.2344" x2="-128.356" y2="328.2344" gradientTransform="matrix(0.1086 -0.9941 0.9941 0.1086 -172.3037 150.8218)">
		<stop  offset="0.3388" style="stop-color:#00678F"/>
		<stop  offset="0.6467" style="stop-color:#00ACBF"/>
		<stop  offset="1" style="stop-color:#FFFFFF"/>
	</linearGradient>
	<path fill="url(#SVGID_45_)" d="M150.691,390.563c0,0,6.5-7.396-11.683-21.255c0,0-20.228-13.804-21.619-22.532
		c0,0-3.91-12.786,2.343-21.45c0,0,4.661-9.514,17.875-11.312c0,0,11.727-0.698,17.334,7.593c0,0,7.723,8.756,1.756,19.124
		c0,0-3.883,6.096-10.078,7.324C146.619,348.056,160.715,379.078,150.691,390.563z"/>
	<path fill="none" stroke="#FFFFFF" stroke-width="0.6883" stroke-miterlimit="10" d="M151.137,390.681
		c5.082-16.42-27.836-27.579-33.5-43.808c-4.531-12.983,2.32-27.182,15.303-31.714c10.388-3.624,21.746,1.856,25.373,12.243
		c2.898,8.31-1.486,17.396-9.795,20.298c-6.649,2.319-13.917-1.189-16.239-7.837c-1.855-5.317,0.951-11.133,6.27-12.99
		c4.254-1.483,8.907,0.761,10.391,5.016c1.188,3.403-0.607,7.125-4.012,8.313c-2.721,0.95-5.7-0.487-6.65-3.21
		c-0.76-2.179,0.925-3.115,3.104-3.876"/>
</g>
<g>
	
		<linearGradient id="SVGID_46_" gradientUnits="userSpaceOnUse" x1="-119.9932" y1="328.6172" x2="-60.3481" y2="328.6172" gradientTransform="matrix(0.2339 -0.9723 0.9723 0.2339 -159.2197 186.3604)">
		<stop  offset="0.3388" style="stop-color:#00678F"/>
		<stop  offset="0.6467" style="stop-color:#00ACBF"/>
		<stop  offset="1" style="stop-color:#FFFFFF"/>
	</linearGradient>
	<path fill="url(#SVGID_46_)" d="M146.838,383.392c0,0,5.881-5.186-7.08-17.969c0,0-14.583-12.948-14.798-19.981
		c0,0-1.797-10.495,4.019-16.706c0,0,4.644-7.045,15.261-7.128c0,0,9.333,0.634,12.924,7.75c0,0,5.217,7.695-0.547,15.281
		c0,0-3.684,4.423-8.697,4.767C147.92,349.405,155.916,375.333,146.838,383.392z"/>
	<path fill="none" stroke="#FFFFFF" stroke-width="0.5481" stroke-miterlimit="10" d="M147.176,383.529
		c5.676-12.456-19.196-24.597-22.03-37.987c-2.267-10.713,4.58-21.235,15.293-23.502c8.571-1.813,16.987,3.664,18.801,12.234
		c1.451,6.856-2.932,13.591-9.787,15.042c-5.486,1.159-10.874-2.346-12.034-7.831c-0.928-4.388,1.877-8.697,6.265-9.626
		c3.509-0.743,6.958,1.501,7.701,5.012c0.594,2.808-1.199,5.565-4.008,6.16c-2.246,0.476-4.455-0.96-4.93-3.207
		c-0.379-1.797,1.045-2.367,2.844-2.748"/>
</g>
<g>
	
		<linearGradient id="SVGID_47_" gradientUnits="userSpaceOnUse" x1="145.2871" y1="90.9756" x2="254.1074" y2="90.9756" gradientTransform="matrix(1 0 0 -1 0 489.3906)">
		<stop  offset="0.3388" style="stop-color:#00678F"/>
		<stop  offset="0.6467" style="stop-color:#00ACBF"/>
		<stop  offset="1" style="stop-color:#FFFFFF"/>
	</linearGradient>
	<path fill="url(#SVGID_47_)" d="M145.287,370.989c0,0,11.707-8.222,28.854,20.224c0,0,16.746,31.392,29.133,34.776
		c0,0,17.848,7.664,31.348,0c0,0,14.479-5.231,19.156-24.031c0,0,2.857-16.826-8.234-26.23c0,0-11.424-12.536-27.34-5.553
		c0,0-9.416,4.646-12.166,13.397C206.037,383.572,163.455,358.324,145.287,370.989z"/>
	<path fill="none" stroke="#FFFFFF" stroke-miterlimit="10" d="M145.188,370.328c24.518-4.752,35.439,44.549,57.986,55.288
		c18.035,8.592,39.621,0.937,48.213-17.1c6.875-14.43,0.75-31.698-13.68-38.572c-11.543-5.498-25.357-0.599-30.857,10.944
		c-4.398,9.235-0.479,20.287,8.756,24.687c7.387,3.52,16.229,0.383,19.748-7.005c2.816-5.909,0.307-12.983-5.604-15.799
		c-4.727-2.252-10.387-0.245-12.639,4.483c-1.801,3.781-0.195,8.309,3.586,10.111c3.025,1.441,4.646-0.844,6.088-3.871"/>
</g>
<g>
	
		<linearGradient id="SVGID_48_" gradientUnits="userSpaceOnUse" x1="205.4219" y1="85.6323" x2="295.2764" y2="85.6323" gradientTransform="matrix(1 0 0 -1 0 489.3906)">
		<stop  offset="0.3388" style="stop-color:#00678F"/>
		<stop  offset="0.6467" style="stop-color:#00ACBF"/>
		<stop  offset="1" style="stop-color:#FFFFFF"/>
	</linearGradient>
	<path fill="url(#SVGID_48_)" d="M205.422,381.112c0,0,9.666-6.789,23.824,16.699c0,0,13.828,25.92,24.055,28.715
		c0,0,14.738,6.329,25.887,0c0,0,11.953-4.319,15.816-19.842c0,0,2.359-13.894-6.799-21.66c0,0-9.434-10.352-22.576-4.584
		c0,0-7.775,3.836-10.045,11.062C255.584,391.503,220.424,370.655,205.422,381.112z"/>
	<path fill="none" stroke="#FFFFFF" stroke-width="0.8257" stroke-miterlimit="10" d="M205.34,380.567
		c20.242-3.924,29.264,36.783,47.879,45.652c14.893,7.094,32.717,0.772,39.812-14.12c5.674-11.915,0.617-26.175-11.297-31.851
		c-9.531-4.539-20.939-0.494-25.48,9.037c-3.631,7.627-0.395,16.752,7.23,20.385c6.1,2.906,13.4,0.316,16.307-5.785
		c2.326-4.879,0.254-10.72-4.627-13.045c-3.904-1.859-8.576-0.201-10.436,3.703c-1.488,3.121-0.162,6.859,2.961,8.348
		c2.498,1.191,3.836-0.695,5.025-3.195"/>
</g>
<g>
	
		<linearGradient id="SVGID_49_" gradientUnits="userSpaceOnUse" x1="212.8965" y1="105.5015" x2="287.8018" y2="105.5015" gradientTransform="matrix(1 0 0 -1 0 489.3906)">
		<stop  offset="0.3388" style="stop-color:#00678F"/>
		<stop  offset="0.6467" style="stop-color:#00ACBF"/>
		<stop  offset="1" style="stop-color:#FFFFFF"/>
	</linearGradient>
	<path fill="url(#SVGID_49_)" d="M212.896,365.011c0,0,8.059-5.659,19.861,13.921c0,0,11.527,21.607,20.053,23.938
		c0,0,12.285,5.275,21.578,0c0,0,9.965-3.601,13.186-16.541c0,0,1.967-11.582-5.666-18.056c0,0-7.867-8.629-18.822-3.822
		c0,0-6.48,3.198-8.373,9.223C254.713,373.673,225.402,356.294,212.896,365.011z"/>
	<path fill="none" stroke="#FFFFFF" stroke-width="0.6883" stroke-miterlimit="10" d="M212.828,364.556
		c16.875-3.271,24.395,30.665,39.914,38.057c12.414,5.914,27.273,0.645,33.188-11.77c4.73-9.933,0.516-21.819-9.416-26.551
		c-7.947-3.784-17.457-0.412-21.242,7.533c-3.027,6.357-0.328,13.964,6.027,16.992c5.086,2.423,11.172,0.264,13.594-4.821
		c1.938-4.067,0.211-8.937-3.857-10.875c-3.254-1.55-7.148-0.169-8.699,3.086c-1.24,2.603-0.135,5.72,2.469,6.96
		c2.082,0.992,3.197-0.581,4.189-2.664"/>
</g>
<g>
	
		<linearGradient id="SVGID_50_" gradientUnits="userSpaceOnUse" x1="134.853" y1="107.1411" x2="209.7568" y2="107.1411" gradientTransform="matrix(1 0 0 -1 0 489.3906)">
		<stop  offset="0.3388" style="stop-color:#00678F"/>
		<stop  offset="0.6467" style="stop-color:#00ACBF"/>
		<stop  offset="1" style="stop-color:#FFFFFF"/>
	</linearGradient>
	<path fill="url(#SVGID_50_)" d="M134.853,363.371c0,0,8.059-5.659,19.862,13.921c0,0,11.527,21.607,20.051,23.938
		c0,0,12.287,5.275,21.58,0c0,0,9.963-3.601,13.184-16.541c0,0,1.967-11.582-5.666-18.056c0,0-7.865-8.629-18.82-3.822
		c0,0-6.48,3.198-8.373,9.223C176.67,372.033,147.359,354.654,134.853,363.371z"/>
	<path fill="none" stroke="#FFFFFF" stroke-width="0.6883" stroke-miterlimit="10" d="M134.785,362.916
		c16.875-3.271,24.395,30.665,39.913,38.057c12.416,5.914,27.273,0.645,33.188-11.77c4.73-9.933,0.516-21.819-9.416-26.551
		c-7.945-3.784-17.455-0.412-21.24,7.533c-3.027,6.357-0.33,13.964,6.027,16.992c5.084,2.423,11.17,0.264,13.594-4.821
		c1.938-4.067,0.211-8.937-3.857-10.875c-3.254-1.55-7.15-0.169-8.699,3.086c-1.24,2.603-0.137,5.72,2.467,6.96
		c2.084,0.992,3.199-0.581,4.191-2.664"/>
</g>
<g>
	
		<linearGradient id="SVGID_51_" gradientUnits="userSpaceOnUse" x1="123.6646" y1="283.1621" x2="183.3076" y2="283.1621" gradientTransform="matrix(0.2339 0.9723 0.9723 -0.2339 -159.2197 277.4619)">
		<stop  offset="0.3388" style="stop-color:#00678F"/>
		<stop  offset="0.6467" style="stop-color:#00ACBF"/>
		<stop  offset="1" style="stop-color:#FFFFFF"/>
	</linearGradient>
	<path fill="url(#SVGID_51_)" d="M159.627,327.96c0,0,5.881,5.186-7.08,17.969c0,0-14.583,12.948-14.797,19.981
		c0,0-1.797,10.495,4.018,16.706c0,0,4.643,7.045,15.26,7.128c0,0,9.334-0.634,12.924-7.75c0,0,5.217-7.695-0.545-15.281
		c0,0-3.684-4.423-8.699-4.767C160.707,361.946,168.703,336.019,159.627,327.96z"/>
	<path fill="none" stroke="#FFFFFF" stroke-width="0.5481" stroke-miterlimit="10" d="M159.965,327.822
		c5.676,12.456-19.198,24.597-22.031,37.987c-2.267,10.713,4.579,21.235,15.292,23.502c8.57,1.813,16.988-3.664,18.803-12.234
		c1.449-6.856-2.932-13.591-9.787-15.042c-5.486-1.159-10.873,2.346-12.033,7.831c-0.93,4.388,1.875,8.697,6.264,9.626
		c3.51,0.743,6.957-1.501,7.701-5.012c0.594-2.808-1.201-5.565-4.01-6.16c-2.246-0.476-4.453,0.96-4.928,3.207
		c-0.381,1.797,1.043,2.367,2.842,2.748"/>
</g>
<g>
	<g>
		
			<linearGradient id="SVGID_52_" gradientUnits="userSpaceOnUse" x1="117.3887" y1="360.6904" x2="261.1816" y2="360.6904" gradientTransform="matrix(0.9913 -0.1314 -0.1314 -0.9913 56.6699 525.3867)">
			<stop  offset="0.3388" style="stop-color:#008BBF"/>
			<stop  offset="0.6467" style="stop-color:#00ACBF"/>
			<stop  offset="1" style="stop-color:#FFFFFF"/>
		</linearGradient>
		<path fill="url(#SVGID_52_)" d="M120.876,116.471c0,0,13.91-12.802,41.306,21.483c0,0,27.388,38.209,44.203,40.493
			c0,0,24.713,6.938,41.065-5.443c0,0,18.053-9.363,20.916-34.805c0,0,0.823-22.537-15.342-32.933c0,0-17.139-14.436-36.78-2.523
			c0,0-11.525,7.721-13.607,19.66C202.638,122.404,142.478,96.728,120.876,116.471z"/>
		
			<linearGradient id="SVGID_53_" gradientUnits="userSpaceOnUse" x1="117.0508" y1="128.8857" x2="266.1172" y2="128.8857" gradientTransform="matrix(0.9947 0.1029 -0.1029 0.9947 16.2012 -12.3711)">
			<stop  offset="0.3388" style="stop-color:#008BBF"/>
			<stop  offset="0.6467" style="stop-color:#00ACBF"/>
			<stop  offset="1" style="stop-color:#FFFFFF"/>
		</linearGradient>
		<path fill="url(#SVGID_53_)" stroke="#FFFFFF" stroke-width="1.3214" stroke-miterlimit="10" d="M120.631,115.623
			c31.29-10.481,54.162,52.202,85.561,62.352c25.113,8.123,52.062-5.65,60.185-30.77c6.498-20.096-4.525-41.65-24.618-48.149
			c-16.072-5.199-33.319,3.619-38.523,19.692c-4.154,12.864,2.901,26.661,15.763,30.817c10.286,3.33,21.32-2.314,24.649-12.605
			c2.661-8.228-1.851-17.06-10.083-19.72c-6.587-2.129-13.647,1.481-15.778,8.065c-1.703,5.268,1.184,10.918,6.456,12.623
			c4.213,1.362,5.936-1.91,7.303-6.126"/>
	</g>
	<g>
		
			<linearGradient id="SVGID_54_" gradientUnits="userSpaceOnUse" x1="41.5952" y1="117.7812" x2="173.7188" y2="117.7812" gradientTransform="matrix(0.8264 0.5631 -0.5631 0.8264 99.5781 -29.8438)">
			<stop  offset="0.3388" style="stop-color:#008BBF"/>
			<stop  offset="0.6467" style="stop-color:#00ACBF"/>
			<stop  offset="1" style="stop-color:#FFFFFF"/>
		</linearGradient>
		<path fill="url(#SVGID_54_)" d="M48.875,118.427c0,0,6.124,16.254,42.777-0.564c0,0,38.264-20.045,53.005-14.974
			c0,0,23.148,4.512,31.454,21.434c0,0,10.95,15.147,2.788,37.21c0,0-8.637,18.832-26.195,20.686c0,0-20.034,4.768-31.228-13.121
			c0,0-6.27-11.1-3.046-21.76C118.43,147.338,58.444,143.557,48.875,118.427z"/>
		
			<linearGradient id="SVGID_55_" gradientUnits="userSpaceOnUse" x1="56.7686" y1="133.6533" x2="192.3154" y2="133.6533" gradientTransform="matrix(0.9947 0.1029 -0.1029 0.9947 16.2012 -12.3711)">
			<stop  offset="0.3388" style="stop-color:#008BBF"/>
			<stop  offset="0.6467" style="stop-color:#00ACBF"/>
			<stop  offset="1" style="stop-color:#FFFFFF"/>
		</linearGradient>
		<path fill="url(#SVGID_55_)" stroke="#FFFFFF" stroke-width="1.2141" stroke-miterlimit="10" d="M60.359,112.411
			c21.349,21.529,66.016-20.467,95.98-15.829c23.97,3.711,40.396,26.151,36.683,50.123c-2.969,19.178-20.921,32.316-40.097,29.35
			c-15.341-2.377-25.853-16.738-23.479-32.08c1.9-12.275,13.39-20.683,25.663-18.784c9.819,1.521,16.546,10.711,15.027,20.53
			c-1.216,7.855-8.571,13.24-16.426,12.02c-6.283-0.969-10.59-6.854-9.616-13.137c0.777-5.026,5.484-8.47,10.511-7.695
			c4.022,0.625,4.086,4.026,3.46,8.049"/>
	</g>
	<g>
		
			<linearGradient id="SVGID_56_" gradientUnits="userSpaceOnUse" x1="114.605" y1="111.2939" x2="223.7012" y2="111.2939" gradientTransform="matrix(0.8264 0.5631 -0.5631 0.8264 99.5781 -29.8438)">
			<stop  offset="0.3388" style="stop-color:#008BBF"/>
			<stop  offset="0.6467" style="stop-color:#00ACBF"/>
			<stop  offset="1" style="stop-color:#FFFFFF"/>
		</linearGradient>
		<path fill="url(#SVGID_56_)" d="M116.13,149.383c0,0,5.059,13.424,35.322-0.465c0,0,31.597-16.551,43.769-12.363
			c0,0,19.113,3.727,25.973,17.699c0,0,9.038,12.506,2.3,30.721c0,0-7.13,15.555-21.63,17.086c0,0-16.541,3.936-25.783-10.838
			c0,0-5.179-9.162-2.517-17.967C173.563,173.256,124.033,170.135,116.13,149.383z"/>
		
			<linearGradient id="SVGID_57_" gradientUnits="userSpaceOnUse" x1="115.6475" y1="162.7715" x2="227.5693" y2="162.7715" gradientTransform="matrix(0.9947 0.1029 -0.1029 0.9947 16.2012 -12.3711)">
			<stop  offset="0.3388" style="stop-color:#008BBF"/>
			<stop  offset="0.6467" style="stop-color:#00ACBF"/>
			<stop  offset="1" style="stop-color:#FFFFFF"/>
		</linearGradient>
		<path fill="url(#SVGID_57_)" stroke="#FFFFFF" stroke-width="1.0025" stroke-miterlimit="10" d="M115.675,149.875
			c17.628,17.779,54.512-16.898,79.254-13.069c19.789,3.065,33.352,21.594,30.287,41.387c-2.451,15.834-17.272,26.686-33.109,24.234
			c-12.668-1.963-21.349-13.824-19.386-26.488c1.571-10.137,11.057-17.078,21.191-15.51c8.109,1.256,13.661,8.846,12.407,16.953
			c-1.005,6.486-7.077,10.928-13.562,9.924c-5.188-0.801-8.743-5.662-7.94-10.852c0.643-4.148,4.528-6.992,8.679-6.35
			c3.32,0.512,3.373,3.32,2.858,6.645"/>
	</g>
	<g>
		
			<linearGradient id="SVGID_58_" gradientUnits="userSpaceOnUse" x1="-60.4648" y1="212.6543" x2="30.4795" y2="212.6543" gradientTransform="matrix(-0.6567 -0.7542 0.7542 -0.6567 -48.6914 256.3818)">
			<stop  offset="0.3388" style="stop-color:#008BBF"/>
			<stop  offset="0.6467" style="stop-color:#00ACBF"/>
			<stop  offset="1" style="stop-color:#FFFFFF"/>
		</linearGradient>
		<path fill="url(#SVGID_58_)" d="M168.679,147.289c0,0-1.242-11.891-28.581-7.087c0,0-28.975,6.673-37.905,0.725
			c0,0-14.626-7.044-17.204-19.761c0,0-4.649-11.993,4.633-25.26c0,0,9.037-11.035,21.05-9.208c0,0,14.174,0.324,18.505,14.187
			c0,0,2.24,8.485-1.768,15.021C127.409,115.905,166.689,128.887,168.679,147.289z"/>
		
			<linearGradient id="SVGID_59_" gradientUnits="userSpaceOnUse" x1="80.4756" y1="116.5845" x2="168.541" y2="116.5845" gradientTransform="matrix(0.9947 0.1029 -0.1029 0.9947 16.2012 -12.3711)">
			<stop  offset="0.3388" style="stop-color:#008BBF"/>
			<stop  offset="0.6467" style="stop-color:#00ACBF"/>
			<stop  offset="1" style="stop-color:#FFFFFF"/>
		</linearGradient>
		<path fill="url(#SVGID_59_)" stroke="#FFFFFF" stroke-width="0.8357" stroke-miterlimit="10" d="M169.15,146.988
			c-10.458-18.059-47.528,2.113-66.669-6.205c-15.313-6.652-22.335-24.459-15.682-39.772c5.324-12.253,19.568-17.87,31.819-12.548
			c9.801,4.258,14.295,15.655,10.038,25.457c-3.407,7.84-12.523,11.433-20.364,8.029c-6.272-2.727-9.148-10.02-6.424-16.293
			c2.179-5.016,8.014-7.316,13.033-5.138c4.014,1.745,5.855,6.413,4.111,10.427c-1.394,3.211-5.13,4.685-8.341,3.29
			c-2.57-1.115-2.017-3.391-0.901-5.96"/>
	</g>
	<g>
		
			<linearGradient id="SVGID_60_" gradientUnits="userSpaceOnUse" x1="23.1602" y1="169.9775" x2="114.1035" y2="169.9775" gradientTransform="matrix(0.9997 0.0241 -0.0241 0.9997 -9.0923 -39.5537)">
			<stop  offset="0.3388" style="stop-color:#008BBF"/>
			<stop  offset="0.6467" style="stop-color:#00ACBF"/>
			<stop  offset="1" style="stop-color:#FFFFFF"/>
		</linearGradient>
		<path fill="url(#SVGID_60_)" d="M9.408,153.848c0,0,9.616,7.104,24.514-16.316c0,0,14.625-25.887,25.039-28.467
			c0,0,15.068-6.044,26.194,0.632c0,0,11.988,4.663,15.518,20.464c0,0,2.049,14.115-7.406,21.75c0,0-9.8,10.244-22.956,4.088
			c0,0-7.773-4.074-9.894-11.439C60.417,144.559,24.333,164.795,9.408,153.848z"/>
		
			<linearGradient id="SVGID_61_" gradientUnits="userSpaceOnUse" x1="10.3145" y1="139.6689" x2="99.5171" y2="139.6689" gradientTransform="matrix(0.9947 0.1029 -0.1029 0.9947 16.2012 -12.3711)">
			<stop  offset="0.3388" style="stop-color:#008BBF"/>
			<stop  offset="0.6467" style="stop-color:#00ACBF"/>
			<stop  offset="1" style="stop-color:#FFFFFF"/>
		</linearGradient>
		<path fill="url(#SVGID_61_)" stroke="#FFFFFF" stroke-width="0.8357" stroke-miterlimit="10" d="M9.312,154.398
			c20.387,4.465,30.507-36.507,49.561-45.024c15.242-6.814,33.124,0.016,39.938,15.257c5.45,12.195-0.013,26.498-12.207,31.953
			c-9.755,4.359-21.199-0.012-25.561-9.768c-3.488-7.803,0.009-16.958,7.812-20.447c6.244-2.792,13.567,0.006,16.359,6.248
			c2.232,4.996-0.005,10.855-5,13.088c-3.996,1.787-8.684-0.002-10.469-3.999c-1.43-3.195,0.003-6.948,3.199-8.376
			c2.557-1.141,3.865,0.799,5.009,3.357"/>
	</g>
	<g>
		
			<linearGradient id="SVGID_62_" gradientUnits="userSpaceOnUse" x1="93.6846" y1="180.9805" x2="184.6289" y2="180.9805" gradientTransform="matrix(0.9997 0.0241 -0.0241 0.9997 -9.0923 -39.5537)">
			<stop  offset="0.3388" style="stop-color:#008BBF"/>
			<stop  offset="0.6467" style="stop-color:#00ACBF"/>
			<stop  offset="1" style="stop-color:#FFFFFF"/>
		</linearGradient>
		<path fill="url(#SVGID_62_)" d="M79.647,166.549c0,0,9.616,7.104,24.513-16.316c0,0,14.625-25.89,25.041-28.468
			c0,0,15.067-6.043,26.191,0.631c0,0,11.99,4.664,15.521,20.465c0,0,2.047,14.114-7.407,21.749c0,0-9.801,10.244-22.957,4.088
			c0,0-7.773-4.07-9.894-11.439C130.656,157.258,94.571,177.496,79.647,166.549z"/>
		
			<linearGradient id="SVGID_63_" gradientUnits="userSpaceOnUse" x1="81.4883" y1="145.0713" x2="170.6895" y2="145.0713" gradientTransform="matrix(0.9947 0.1029 -0.1029 0.9947 16.2012 -12.3711)">
			<stop  offset="0.3388" style="stop-color:#008BBF"/>
			<stop  offset="0.6467" style="stop-color:#00ACBF"/>
			<stop  offset="1" style="stop-color:#FFFFFF"/>
		</linearGradient>
		<path fill="url(#SVGID_63_)" stroke="#FFFFFF" stroke-width="0.8357" stroke-miterlimit="10" d="M79.551,167.1
			c20.387,4.461,30.507-36.509,49.561-45.027c15.241-6.813,33.123,0.017,39.938,15.259c5.448,12.194-0.015,26.499-12.208,31.952
			c-9.755,4.359-21.198-0.012-25.562-9.766c-3.487-7.807,0.011-16.958,7.814-20.447c6.243-2.793,13.566,0.004,16.36,6.248
			c2.231,4.994-0.007,10.855-5.002,13.086c-3.996,1.787-8.683-0.002-10.469-4c-1.429-3.193,0.003-6.945,3.2-8.375
			c2.556-1.143,3.864,0.799,5.009,3.354"/>
	</g>
	<g>
		
			<linearGradient id="SVGID_64_" gradientUnits="userSpaceOnUse" x1="-10.373" y1="188.1797" x2="62.0425" y2="188.1797" gradientTransform="matrix(-0.8264 -0.5631 0.5631 -0.8264 37.1895 330.9766)">
			<stop  offset="0.3388" style="stop-color:#008BBF"/>
			<stop  offset="0.6467" style="stop-color:#00ACBF"/>
			<stop  offset="1" style="stop-color:#FFFFFF"/>
		</linearGradient>
		<path fill="url(#SVGID_64_)" d="M162.008,166.229c0,0-3.354-8.906-23.445,0.311c0,0-20.974,10.988-29.052,8.209
			c0,0-12.69-2.475-17.241-11.752c0,0-6.001-8.299-1.529-20.391c0,0,4.734-10.324,14.358-11.341c0,0,10.98-2.612,17.116,7.193
			c0,0,3.438,6.083,1.67,11.925C123.885,150.383,156.764,152.457,162.008,166.229z"/>
		
			<linearGradient id="SVGID_65_" gradientUnits="userSpaceOnUse" x1="89.3926" y1="154.5703" x2="163.6875" y2="154.5703" gradientTransform="matrix(0.9947 0.1029 -0.1029 0.9947 16.2012 -12.3711)">
			<stop  offset="0.3388" style="stop-color:#008BBF"/>
			<stop  offset="0.6467" style="stop-color:#00ACBF"/>
			<stop  offset="1" style="stop-color:#FFFFFF"/>
		</linearGradient>
		<path fill="url(#SVGID_65_)" stroke="#FFFFFF" stroke-width="0.6655" stroke-miterlimit="10" d="M162.312,165.904
			c-11.702-11.801-36.185,11.217-52.609,8.676c-13.138-2.035-22.14-14.334-20.106-27.471c1.627-10.513,11.467-17.715,21.978-16.088
			c8.409,1.303,14.171,9.175,12.869,17.583c-1.042,6.729-7.34,11.336-14.067,10.295c-5.38-0.834-9.068-5.869-8.234-11.254
			c0.665-4.303,4.697-7.254,9.002-6.586c3.444,0.532,5.803,3.756,5.271,7.202c-0.427,2.756-3.007,4.645-5.761,4.217
			c-2.204-0.342-2.239-2.205-1.897-4.41"/>
	</g>
	<g>
		
			<linearGradient id="SVGID_66_" gradientUnits="userSpaceOnUse" x1="33.1221" y1="183.542" x2="105.5391" y2="183.542" gradientTransform="matrix(0.9974 0.0727 -0.0727 0.9974 -6.1704 -30.4854)">
			<stop  offset="0.3388" style="stop-color:#008BBF"/>
			<stop  offset="0.6467" style="stop-color:#00ACBF"/>
			<stop  offset="1" style="stop-color:#FFFFFF"/>
		</linearGradient>
		<path fill="url(#SVGID_66_)" d="M12.199,173.182c0,0,7.374,6.021,20.129-12.029c0,0,12.633-20.026,21.017-21.671
			c0,0,12.218-4.224,20.808,1.517c0,0,9.355,4.172,11.55,16.874c0,0,1.083,11.309-6.733,17.016c0,0-8.189,7.77-18.415,2.361
			c0,0-6.024-3.539-7.426-9.48C53.129,167.768,23.646,182.467,12.199,173.182z"/>
		
			<linearGradient id="SVGID_67_" gradientUnits="userSpaceOnUse" x1="16.5146" y1="166.4375" x2="86.5488" y2="166.4375" gradientTransform="matrix(0.9808 0.1949 -0.1949 0.9808 32.7358 -14.9287)">
			<stop  offset="0.3388" style="stop-color:#008BBF"/>
			<stop  offset="0.6467" style="stop-color:#00ACBF"/>
			<stop  offset="1" style="stop-color:#FFFFFF"/>
		</linearGradient>
		<path fill="url(#SVGID_67_)" stroke="#FFFFFF" stroke-width="0.6655" stroke-miterlimit="10" d="M12.101,173.613
			c16.043,4.34,25.676-27.852,41.16-33.889c12.387-4.83,26.344,1.296,31.175,13.682c3.865,9.908-1.037,21.072-10.946,24.938
			c-7.928,3.094-16.86-0.83-19.952-8.756c-2.472-6.344,0.663-13.49,7.006-15.963c5.073-1.977,10.79,0.531,12.769,5.605
			c1.583,4.059-0.424,8.633-4.483,10.215c-3.247,1.268-6.905-0.338-8.172-3.586c-1.013-2.598,0.271-5.525,2.869-6.537
			c2.078-0.812,3.042,0.781,3.853,2.863"/>
	</g>
	<g>
		
			<linearGradient id="SVGID_68_" gradientUnits="userSpaceOnUse" x1="82.0195" y1="182.5879" x2="130.0269" y2="182.5879" gradientTransform="matrix(0.9672 0.254 -0.254 0.9672 27.8765 -37.0781)">
			<stop  offset="0.3388" style="stop-color:#008BBF"/>
			<stop  offset="0.6467" style="stop-color:#00ACBF"/>
			<stop  offset="1" style="stop-color:#FFFFFF"/>
		</linearGradient>
		<path fill="url(#SVGID_68_)" d="M57.764,172.053c0,0,4.073,4.822,14.577-5.395c0,0,10.664-11.52,16.327-11.574
			c0,0,8.474-1.27,13.377,3.512c0,0,5.591,3.854,5.48,12.398c0,0-0.666,7.502-6.453,10.271c0,0-6.279,4.07-12.287-0.693
			c0,0-3.498-3.037-3.691-7.082C85.095,173.49,64.098,179.494,57.764,172.053z"/>
		
			<linearGradient id="SVGID_69_" gradientUnits="userSpaceOnUse" x1="60.2383" y1="172.4414" x2="109.6572" y2="172.4414" gradientTransform="matrix(0.9947 0.1029 -0.1029 0.9947 16.2012 -12.3711)">
			<stop  offset="0.3388" style="stop-color:#008BBF"/>
			<stop  offset="0.6467" style="stop-color:#00ACBF"/>
			<stop  offset="1" style="stop-color:#FFFFFF"/>
		</linearGradient>
		<path fill="url(#SVGID_69_)" stroke="#FFFFFF" stroke-width="0.4412" stroke-miterlimit="10" d="M57.646,172.326
			c9.93,4.773,20.114-15.039,30.938-17.096c8.658-1.643,17.009,4.041,18.656,12.701c1.317,6.926-3.231,13.607-10.159,14.926
			c-5.542,1.049-10.888-2.588-11.941-8.127c-0.841-4.436,2.069-8.711,6.503-9.555c3.546-0.674,6.967,1.654,7.642,5.201
			c0.539,2.838-1.325,5.574-4.162,6.111c-2.27,0.434-4.46-1.057-4.891-3.326c-0.345-1.816,0.847-3.566,2.663-3.91
			c1.453-0.279,1.888,0.877,2.163,2.332"/>
	</g>
	<g>
		
			<linearGradient id="SVGID_70_" gradientUnits="userSpaceOnUse" x1="103.3862" y1="135.5259" x2="194.3311" y2="135.5259" gradientTransform="matrix(0.8264 0.5631 -0.5631 0.8264 99.5781 -29.8438)">
			<stop  offset="0.3388" style="stop-color:#008BBF"/>
			<stop  offset="0.6467" style="stop-color:#00ACBF"/>
			<stop  offset="1" style="stop-color:#FFFFFF"/>
		</linearGradient>
		<path fill="url(#SVGID_70_)" d="M95.789,159.311c0,0,4.216,11.189,29.444-0.389c0,0,26.337-13.797,36.486-10.309
			c0,0,15.935,3.109,21.648,14.756c0,0,7.538,10.426,1.922,25.611c0,0-5.946,12.965-18.028,14.24c0,0-13.793,3.279-21.499-9.031
			c0,0-4.316-7.641-2.096-14.98C143.666,179.209,102.376,176.607,95.789,159.311z"/>
		
			<linearGradient id="SVGID_71_" gradientUnits="userSpaceOnUse" x1="96.502" y1="172.7139" x2="189.8018" y2="172.7139" gradientTransform="matrix(0.9947 0.1029 -0.1029 0.9947 16.2012 -12.3711)">
			<stop  offset="0.3388" style="stop-color:#008BBF"/>
			<stop  offset="0.6467" style="stop-color:#00ACBF"/>
			<stop  offset="1" style="stop-color:#FFFFFF"/>
		</linearGradient>
		<path fill="url(#SVGID_71_)" stroke="#FFFFFF" stroke-width="0.8357" stroke-miterlimit="10" d="M95.408,159.721
			c14.695,14.82,45.442-14.088,66.066-10.896c16.5,2.557,27.803,18.002,25.25,34.5c-2.043,13.199-14.4,22.246-27.6,20.203
			c-10.559-1.637-17.795-11.52-16.162-22.082c1.309-8.447,9.216-14.236,17.666-12.926c6.757,1.045,11.388,7.371,10.343,14.131
			c-0.838,5.404-5.898,9.109-11.306,8.273c-4.325-0.67-7.29-4.719-6.619-9.045c0.535-3.459,3.774-5.832,7.236-5.297
			c2.768,0.43,2.81,2.771,2.381,5.541"/>
	</g>
</g>
<g>
	<g>
		<path fill="#FFFFFF" d="M95.38,25.151c0.275,0.678,0.549,1.355,0.824,2.032c-2.095,0.85-4.172,1.76-6.229,2.729
			c2.792,5.928,5.583,11.855,8.375,17.783c-2.169,1.022-4.312,2.124-6.423,3.304c-3.195-5.72-6.391-11.44-9.586-17.161
			c-2.014,1.125-4.004,2.312-5.967,3.558c-0.392-0.617-0.784-1.234-1.175-1.852C81.674,31.435,88.431,27.97,95.38,25.151z"/>
		<path fill="#FFFFFF" d="M114.049,31.14c-1.494,0.387-2.983,0.805-4.464,1.253c-0.028-0.649-0.023-1.135,0.011-1.457
			c0.043-0.47,0.016-0.874-0.084-1.211c-0.193-0.654-0.572-0.9-1.135-0.729c-0.428,0.13-0.705,0.689-0.818,1.67
			c-0.114,0.982-0.009,1.95,0.298,2.905c0.988,3.067,1.976,6.135,2.963,9.203c-1.96,0.631-3.906,1.322-5.835,2.072
			c-1.949-5.013-3.899-10.025-5.848-15.038c0.435-0.164,0.871-0.324,1.307-0.482c1.543-0.58,3.3-1.359,5.303-2.307
			c0.271,0.843,0.543,1.686,0.814,2.529c0.54-2.034,1.653-3.307,3.273-3.766c2.216-0.624,3.584,0.115,4.085,2.12
			c0.133,0.528,0.182,1.159,0.151,1.895C114.067,30.094,114.06,30.542,114.049,31.14z"/>
		<path fill="#FFFFFF" d="M130.377,32.551c0.888,0.13,1.772,0.272,2.651,0.424c0.04,3.75-2.071,5.749-6.335,6.403
			c-5.502,0.885-8.858-0.952-10.168-6.184c-0.613-2.528-0.32-4.805,0.994-6.797c1.309-1.989,3.352-3.251,6.031-3.684
			c5.649-0.884,8.747,1.961,9.234,7.937c-3.174,0.285-6.338,0.705-9.484,1.261c0.752,4.163,2.239,6.027,4.475,5.703
			c2.099-0.298,3.022-1.589,2.761-3.969C130.5,33.327,130.447,32.962,130.377,32.551z M122.967,30.133
			c1.31-0.231,2.624-0.44,3.939-0.625c-0.517-3.719-1.452-5.49-2.799-5.278c-1.218,0.193-1.662,1.689-1.321,4.457
			C122.846,29.168,122.906,29.65,122.967,30.133z"/>
		<path fill="#FFFFFF" d="M152.007,38.166c-2.03-0.18-4.065-0.3-6.102-0.361c0.118-3.947,0.236-7.893,0.354-11.84
			c0.037-1.205-0.342-1.821-1.138-1.837c-0.808-0.016-1.517,0.456-2.104,1.41c-0.588,0.954-0.868,2.085-0.86,3.387
			c0.016,2.945,0.033,5.891,0.049,8.836c-2.037,0.011-4.073,0.082-6.107,0.212c-0.345-5.378-0.69-10.756-1.036-16.134
			c2.419-0.155,4.764-0.366,7.051-0.646c0.006,1.008,0.011,2.017,0.017,3.025c1.701-2.015,3.887-2.994,6.422-2.873
			c3.294,0.165,4.808,1.715,4.552,4.449C152.739,29.917,152.373,34.042,152.007,38.166z"/>
		<path fill="#FFFFFF" d="M167.792,24.294c-0.125,0.59-0.25,1.18-0.376,1.77c-1.01-0.214-2.022-0.416-3.038-0.604
			c-0.692,3.741-1.386,7.481-2.078,11.223c-0.13,0.703,0.046,1.098,0.527,1.19c0.347,0.067,0.6-0.127,0.762-0.585
			c0.574,0.168,1.147,0.342,1.72,0.52c-0.845,1.546-2.51,2.037-5.049,1.602c-3.02-0.506-4.391-1.901-4.092-4.388
			c0.442-3.542,0.886-7.084,1.328-10.626c-0.769-0.096-1.539-0.185-2.311-0.266c0.063-0.6,0.127-1.199,0.189-1.799
			c0.783,0.083,1.564,0.172,2.346,0.27c0.118-0.942,0.236-1.885,0.354-2.827c2.546-0.241,5.064-0.657,7.59-1.253
			c-0.318,1.721-0.638,3.441-0.956,5.162C165.738,23.873,166.767,24.077,167.792,24.294z"/>
		<path fill="#FFFFFF" d="M178.662,26.652c6.283,1.987,8.249,5.961,6.103,11.139c-2.159,5.232-5.809,6.679-11.121,5.003
			c-5.335-1.634-7.477-4.884-6.289-10.419C168.528,26.895,172.353,24.725,178.662,26.652z M178.222,28.007
			c-1.504-0.465-2.905,1.576-4.197,6.077c-1.293,4.505-1.282,6.939,0.026,7.344c1.316,0.411,2.714-1.585,4.203-6.03
			C179.742,30.958,179.735,28.479,178.222,28.007z"/>
		<path fill="#FFFFFF" d="M198.66,53.992c-1.789-1.135-3.605-2.211-5.443-3.228c1.909-3.456,3.818-6.912,5.729-10.368
			c0.584-1.054,0.518-1.782-0.204-2.172c-0.733-0.396-1.597-0.308-2.569,0.264c-0.973,0.573-1.744,1.449-2.332,2.61
			c-1.329,2.628-2.658,5.257-3.987,7.885c-1.866-0.944-3.754-1.829-5.66-2.654c2.14-4.946,4.28-9.892,6.42-14.838
			c2.269,0.982,4.5,1.885,6.718,2.708c-0.455,0.9-0.91,1.8-1.365,2.7c2.474-0.996,4.92-0.839,7.193,0.472
			c2.949,1.712,3.641,3.824,2.157,6.134C203.098,47,200.879,50.496,198.66,53.992z"/>
	</g>
</g>
<g>
	<path fill="#FFFFFF" stroke="#00AEEF" stroke-width="0.2948" stroke-miterlimit="10" d="M328.837,83.138
		c0,4.184-3.391,7.575-7.578,7.575c-4.177,0-7.571-3.392-7.571-7.575c0-4.183,3.395-7.572,7.571-7.572
		C325.446,75.565,328.837,78.955,328.837,83.138z"/>
	<linearGradient id="SVGID_72_" gradientUnits="userSpaceOnUse" x1="319.71" y1="81.4634" x2="327.2314" y2="81.4634">
		<stop  offset="0.3388" style="stop-color:#004D6D"/>
		<stop  offset="1" style="stop-color:#00ACBF"/>
	</linearGradient>
	<path fill="url(#SVGID_72_)" stroke="#00AEEF" stroke-width="0.2948" stroke-miterlimit="10" d="M327.231,81.463
		c0,2.078-1.684,3.762-3.764,3.762c-2.074,0-3.758-1.684-3.758-3.762c0-2.076,1.684-3.761,3.758-3.761
		C325.548,77.702,327.231,79.387,327.231,81.463z"/>
</g>
<g>
	<path fill="#FFFFFF" stroke="#00AEEF" stroke-width="0.2463" stroke-miterlimit="10" d="M336.101,88.212
		c0,3.496-2.833,6.33-6.332,6.33c-3.489,0-6.326-2.834-6.326-6.33c0-3.495,2.837-6.327,6.326-6.327
		C333.268,81.885,336.101,84.717,336.101,88.212z"/>
	<linearGradient id="SVGID_73_" gradientUnits="userSpaceOnUse" x1="328.4746" y1="86.8135" x2="334.7598" y2="86.8135">
		<stop  offset="0.3388" style="stop-color:#004D6D"/>
		<stop  offset="1" style="stop-color:#00ACBF"/>
	</linearGradient>
	<path fill="url(#SVGID_73_)" stroke="#00AEEF" stroke-width="0.2463" stroke-miterlimit="10" d="M334.76,86.813
		c0,1.736-1.407,3.143-3.146,3.143c-1.732,0-3.14-1.407-3.14-3.143c0-1.735,1.407-3.143,3.14-3.143
		C333.353,83.67,334.76,85.078,334.76,86.813z"/>
</g>
<g>
	<path fill="#FFFFFF" stroke="#00AEEF" stroke-width="0.1638" stroke-miterlimit="10" d="M341.174,91.09
		c0,2.324-1.883,4.208-4.21,4.208c-2.319,0-4.206-1.885-4.206-4.208c0-2.324,1.887-4.207,4.206-4.207
		C339.291,86.883,341.174,88.766,341.174,91.09z"/>
	<linearGradient id="SVGID_74_" gradientUnits="userSpaceOnUse" x1="336.1035" y1="90.1602" x2="340.2832" y2="90.1602">
		<stop  offset="0.3388" style="stop-color:#004D6D"/>
		<stop  offset="1" style="stop-color:#00ACBF"/>
	</linearGradient>
	<path fill="url(#SVGID_74_)" stroke="#00AEEF" stroke-width="0.1638" stroke-miterlimit="10" d="M340.283,90.16
		c0,1.154-0.937,2.09-2.092,2.09c-1.151,0-2.088-0.936-2.088-2.09c0-1.153,0.937-2.089,2.088-2.089
		C339.347,88.07,340.283,89.006,340.283,90.16z"/>
</g>
<g>
	<path fill="#FFFFFF" stroke="#00AEEF" stroke-width="0.188" stroke-miterlimit="10" d="M328.923,87.969
		c0,2.668-2.162,4.831-4.833,4.831c-2.664,0-4.829-2.163-4.829-4.831c0-2.667,2.165-4.83,4.829-4.83
		C326.761,83.139,328.923,85.301,328.923,87.969z"/>
	<linearGradient id="SVGID_75_" gradientUnits="userSpaceOnUse" x1="323.1016" y1="86.9009" x2="327.8984" y2="86.9009">
		<stop  offset="0.3388" style="stop-color:#004D6D"/>
		<stop  offset="1" style="stop-color:#00ACBF"/>
	</linearGradient>
	<circle fill="url(#SVGID_75_)" stroke="#00AEEF" stroke-width="0.188" stroke-miterlimit="10" cx="325.5" cy="86.9" r="2.398"/>
</g>
<g>
	
		<linearGradient id="SVGID_76_" gradientUnits="userSpaceOnUse" x1="146.9678" y1="301.1016" x2="182.6504" y2="301.1016" gradientTransform="matrix(-0.7967 0.6044 0.6044 0.7967 312.3345 -230.0703)">
		<stop  offset="0.3388" style="stop-color:#008BBF"/>
		<stop  offset="0.6467" style="stop-color:#00ACBF"/>
		<stop  offset="1" style="stop-color:#FFFFFF"/>
	</linearGradient>
	<path fill="#FFFFFF" stroke="url(#SVGID_76_)" stroke-width="0.5689" stroke-miterlimit="10" d="M350.221,121.712
		c0,0,4.347,1.002,5.966-9.229c0,0,1.157-11.033,4.339-13.463c0,0,4.259-4.308,9.058-3.675c0,0,4.797-0.187,8.353,4.697
		c0,0,2.799,4.526,0.697,8.545c0,0-1.832,4.962-7.249,4.811c0,0-3.266-0.239-5.086-2.444
		C366.298,110.953,356.954,123.24,350.221,121.712z"/>
	
		<linearGradient id="SVGID_77_" gradientUnits="userSpaceOnUse" x1="147.1367" y1="301.1621" x2="182.584" y2="301.1621" gradientTransform="matrix(-0.7967 0.6044 0.6044 0.7967 312.3345 -230.0703)">
		<stop  offset="0.3388" style="stop-color:#008BBF"/>
		<stop  offset="0.6467" style="stop-color:#00ACBF"/>
		<stop  offset="1" style="stop-color:#FFFFFF"/>
	</linearGradient>
	<path fill="#FFFFFF" stroke="url(#SVGID_77_)" stroke-width="0.3118" stroke-miterlimit="10" d="M350.269,121.914
		c7.643-1.501,5.017-17.028,10.271-22.774c4.205-4.597,11.34-4.917,15.937-0.713c3.678,3.364,3.933,9.071,0.57,12.751
		c-2.691,2.94-7.257,3.145-10.2,0.456c-2.354-2.153-2.516-5.807-0.363-8.161c1.721-1.883,4.643-2.013,6.527-0.291
		c1.506,1.376,1.611,3.715,0.232,5.222c-1.102,1.206-2.972,1.289-4.178,0.187c-0.963-0.881-1.031-2.378-0.148-3.342
		c0.705-0.772,1.44-0.301,2.213,0.404"/>
</g>
<g>
	
		<linearGradient id="SVGID_78_" gradientUnits="userSpaceOnUse" x1="121.832" y1="295.2969" x2="157.5156" y2="295.2969" gradientTransform="matrix(-0.7967 0.6044 0.6044 0.7967 312.3345 -230.0703)">
		<stop  offset="0.3388" style="stop-color:#008BBF"/>
		<stop  offset="0.6467" style="stop-color:#00ACBF"/>
		<stop  offset="1" style="stop-color:#FFFFFF"/>
	</linearGradient>
	<path fill="#FFFFFF" stroke="url(#SVGID_78_)" stroke-width="0.5689" stroke-miterlimit="10" d="M366.737,101.896
		c0,0,4.348,1.002,5.966-9.229c0,0,1.157-11.033,4.339-13.462c0,0,4.26-4.308,9.059-3.676c0,0,4.797-0.187,8.352,4.697
		c0,0,2.799,4.526,0.697,8.545c0,0-1.832,4.962-7.248,4.811c0,0-3.267-0.239-5.086-2.444
		C382.815,91.136,373.472,103.423,366.737,101.896z"/>
	
		<linearGradient id="SVGID_79_" gradientUnits="userSpaceOnUse" x1="122.0005" y1="295.3574" x2="157.4482" y2="295.3574" gradientTransform="matrix(-0.7967 0.6044 0.6044 0.7967 312.3345 -230.0703)">
		<stop  offset="0.3388" style="stop-color:#008BBF"/>
		<stop  offset="0.6467" style="stop-color:#00ACBF"/>
		<stop  offset="1" style="stop-color:#FFFFFF"/>
	</linearGradient>
	<path fill="#FFFFFF" stroke="url(#SVGID_79_)" stroke-width="0.3118" stroke-miterlimit="10" d="M366.785,102.097
		c7.643-1.5,5.017-17.028,10.272-22.773c4.204-4.598,11.339-4.917,15.936-0.713c3.678,3.364,3.934,9.071,0.57,12.751
		c-2.691,2.94-7.257,3.145-10.199,0.456c-2.354-2.153-2.517-5.807-0.364-8.161c1.722-1.883,4.644-2.013,6.528-0.291
		c1.506,1.376,1.61,3.715,0.232,5.222c-1.103,1.206-2.973,1.289-4.178,0.187c-0.963-0.881-1.031-2.378-0.149-3.342
		c0.705-0.772,1.44-0.301,2.213,0.404"/>
</g>
<g>
	
		<linearGradient id="SVGID_80_" gradientUnits="userSpaceOnUse" x1="70.0054" y1="211.9102" x2="105.689" y2="211.9102" gradientTransform="matrix(-0.938 0.3467 0.3467 0.938 406.4375 -143.8945)">
		<stop  offset="0.3388" style="stop-color:#008BBF"/>
		<stop  offset="0.6467" style="stop-color:#00ACBF"/>
		<stop  offset="1" style="stop-color:#FFFFFF"/>
	</linearGradient>
	<path fill="#FFFFFF" stroke="url(#SVGID_80_)" stroke-width="0.5689" stroke-miterlimit="10" d="M381.683,93.368
		c0,0,3.868,2.222,8.392-7.096c0,0,4.315-10.22,8.065-11.619c0,0,5.328-2.884,9.736-0.884c0,0,4.644,1.216,6.625,6.922
		c0,0,1.362,5.145-1.816,8.378c0,0-3.195,4.215-8.334,2.496c0,0-3.057-1.179-4.156-3.818
		C400.194,87.747,387.683,96.786,381.683,93.368z"/>
	
		<linearGradient id="SVGID_81_" gradientUnits="userSpaceOnUse" x1="70.1729" y1="211.9707" x2="105.6221" y2="211.9707" gradientTransform="matrix(-0.938 0.3467 0.3467 0.938 406.4375 -143.8945)">
		<stop  offset="0.3388" style="stop-color:#008BBF"/>
		<stop  offset="0.6467" style="stop-color:#00ACBF"/>
		<stop  offset="1" style="stop-color:#FFFFFF"/>
	</linearGradient>
	<path fill="#FFFFFF" stroke="url(#SVGID_81_)" stroke-width="0.3118" stroke-miterlimit="10" d="M381.67,93.574
		c7.749,0.787,9.751-14.833,16.45-18.803c5.359-3.177,12.278-1.408,15.455,3.951c2.541,4.288,1.125,9.823-3.162,12.366
		c-3.43,2.031-7.857,0.898-9.892-2.529c-1.626-2.745-0.72-6.288,2.024-7.915c2.194-1.301,5.027-0.576,6.33,1.62
		c1.041,1.754,0.461,4.022-1.295,5.063c-1.406,0.833-3.219,0.37-4.052-1.036c-0.665-1.123-0.296-2.575,0.829-3.241
		c0.898-0.534,1.466,0.131,2,1.03"/>
</g>
<g>
	
		<linearGradient id="SVGID_82_" gradientUnits="userSpaceOnUse" x1="61.6543" y1="202.709" x2="79.2305" y2="202.709" gradientTransform="matrix(-0.938 0.3467 0.3467 0.938 406.4375 -143.8945)">
		<stop  offset="0.3388" style="stop-color:#008BBF"/>
		<stop  offset="0.6467" style="stop-color:#00ACBF"/>
		<stop  offset="1" style="stop-color:#FFFFFF"/>
	</linearGradient>
	<path fill="#FFFFFF" stroke="url(#SVGID_82_)" stroke-width="0.2802" stroke-miterlimit="10" d="M402.844,74.624
		c0,0,1.905,1.094,4.134-3.496c0,0,2.125-5.034,3.972-5.723c0,0,2.625-1.42,4.796-0.435c0,0,2.287,0.599,3.264,3.409
		c0,0,0.671,2.534-0.896,4.127c0,0-1.573,2.076-4.104,1.229c0,0-1.506-0.581-2.047-1.88
		C411.962,71.855,405.798,76.307,402.844,74.624z"/>
	
		<linearGradient id="SVGID_83_" gradientUnits="userSpaceOnUse" x1="61.7383" y1="202.7383" x2="79.1987" y2="202.7383" gradientTransform="matrix(-0.938 0.3467 0.3467 0.938 406.4375 -143.8945)">
		<stop  offset="0.3388" style="stop-color:#008BBF"/>
		<stop  offset="0.6467" style="stop-color:#00ACBF"/>
		<stop  offset="1" style="stop-color:#FFFFFF"/>
	</linearGradient>
	<path fill="#FFFFFF" stroke="url(#SVGID_83_)" stroke-width="0.1536" stroke-miterlimit="10" d="M402.837,74.725
		c3.816,0.387,4.803-7.307,8.103-9.262c2.64-1.565,6.048-0.694,7.612,1.945c1.252,2.112,0.555,4.838-1.557,6.091
		c-1.689,1-3.871,0.443-4.873-1.246c-0.8-1.352-0.354-3.097,0.998-3.898c1.08-0.641,2.477-0.283,3.117,0.798
		c0.514,0.864,0.228,1.981-0.638,2.494c-0.692,0.41-1.585,0.182-1.995-0.51c-0.328-0.553-0.146-1.269,0.408-1.597
		c0.442-0.263,0.722,0.065,0.984,0.508"/>
</g>
<g>
	
		<linearGradient id="SVGID_84_" gradientUnits="userSpaceOnUse" x1="93.8774" y1="207.917" x2="118.7715" y2="207.917" gradientTransform="matrix(-0.953 0.3029 0.3029 0.953 417.0117 -130.3613)">
		<stop  offset="0.3388" style="stop-color:#008BBF"/>
		<stop  offset="0.6467" style="stop-color:#00ACBF"/>
		<stop  offset="1" style="stop-color:#FFFFFF"/>
	</linearGradient>
	<path fill="#FFFFFF" stroke="url(#SVGID_84_)" stroke-width="0.3969" stroke-miterlimit="10" d="M367.368,105.085
		c0,0,2.623,1.674,6.076-4.674c0,0,3.338-6.984,5.996-7.838c0,0,3.807-1.837,6.814-0.301c0,0,3.197,0.998,4.394,5.038
		c0,0,0.783,3.63-1.536,5.781c0,0-2.363,2.834-5.89,1.471c0,0-2.091-0.92-2.772-2.795
		C380.45,101.767,371.438,107.661,367.368,105.085z"/>
	
		<linearGradient id="SVGID_85_" gradientUnits="userSpaceOnUse" x1="93.9951" y1="207.96" x2="118.7251" y2="207.96" gradientTransform="matrix(-0.953 0.3029 0.3029 0.953 417.0117 -130.3613)">
		<stop  offset="0.3388" style="stop-color:#008BBF"/>
		<stop  offset="0.6467" style="stop-color:#00ACBF"/>
		<stop  offset="1" style="stop-color:#FFFFFF"/>
	</linearGradient>
	<path fill="#FFFFFF" stroke="url(#SVGID_85_)" stroke-width="0.2176" stroke-miterlimit="10" d="M367.353,105.228
		c5.374,0.799,7.274-10.022,12.07-12.572c3.838-2.041,8.604-0.585,10.644,3.252c1.632,3.07,0.468,6.882-2.603,8.517
		c-2.456,1.303-5.506,0.371-6.812-2.082c-1.044-1.967-0.298-4.406,1.667-5.452c1.571-0.836,3.522-0.239,4.359,1.333
		c0.669,1.255,0.191,2.818-1.067,3.488c-1.006,0.535-2.254,0.152-2.789-0.854c-0.428-0.805-0.123-1.805,0.682-2.232
		c0.645-0.344,1.018,0.139,1.361,0.783"/>
</g>
<g>
	<g>
		
			<linearGradient id="SVGID_86_" gradientUnits="userSpaceOnUse" x1="131.1729" y1="139.0566" x2="151.4219" y2="139.0566" gradientTransform="matrix(-0.953 0.3029 0.3029 0.953 417.0117 -130.3613)">
			<stop  offset="0.3388" style="stop-color:#008BBF"/>
			<stop  offset="0.6467" style="stop-color:#00ACBF"/>
			<stop  offset="1" style="stop-color:#FFFFFF"/>
		</linearGradient>
		<path fill="#FFFFFF" stroke="url(#SVGID_86_)" stroke-width="0.3228" stroke-miterlimit="10" d="M315.288,49.101
			c0,0,2.135,1.361,4.943-3.803c0,0,2.715-5.681,4.877-6.375c0,0,3.096-1.495,5.542-0.244c0,0,2.601,0.811,3.573,4.097
			c0,0,0.638,2.953-1.249,4.702c0,0-1.923,2.307-4.79,1.197c0,0-1.701-0.749-2.256-2.274
			C325.929,46.4,318.599,51.196,315.288,49.101z"/>
		
			<linearGradient id="SVGID_87_" gradientUnits="userSpaceOnUse" x1="131.2681" y1="139.0913" x2="151.3838" y2="139.0913" gradientTransform="matrix(-0.953 0.3029 0.3029 0.953 417.0117 -130.3613)">
			<stop  offset="0.3388" style="stop-color:#008BBF"/>
			<stop  offset="0.6467" style="stop-color:#00ACBF"/>
			<stop  offset="1" style="stop-color:#FFFFFF"/>
		</linearGradient>
		<path fill="#FFFFFF" stroke="url(#SVGID_87_)" stroke-width="0.177" stroke-miterlimit="10" d="M315.275,49.216
			c4.372,0.65,5.917-8.152,9.819-10.227c3.121-1.659,6.996-0.476,8.656,2.646c1.328,2.498,0.38,5.599-2.117,6.928
			c-1.998,1.059-4.478,0.301-5.541-1.694c-0.85-1.6-0.242-3.584,1.355-4.434c1.278-0.68,2.865-0.194,3.547,1.083
			c0.543,1.022,0.155,2.293-0.868,2.838c-0.818,0.435-1.834,0.124-2.269-0.694c-0.349-0.654-0.1-1.468,0.555-1.815
			c0.523-0.279,0.827,0.113,1.105,0.637"/>
	</g>
	<g>
		
			<linearGradient id="SVGID_88_" gradientUnits="userSpaceOnUse" x1="217.7461" y1="383.6074" x2="240.8564" y2="383.6074" gradientTransform="matrix(-0.953 -0.3029 0.3029 -0.953 417.0117 484.3604)">
			<stop  offset="0.3388" style="stop-color:#008BBF"/>
			<stop  offset="0.6467" style="stop-color:#00ACBF"/>
			<stop  offset="1" style="stop-color:#FFFFFF"/>
		</linearGradient>
		<path fill="#FFFFFF" stroke="url(#SVGID_88_)" stroke-width="0.3685" stroke-miterlimit="10" d="M304.185,44.597
			c0,0,2.436-1.554,5.642,4.34c0,0,3.099,6.484,5.565,7.275c0,0,3.535,1.707,6.326,0.279c0,0,2.969-0.926,4.078-4.676
			c0,0,0.729-3.372-1.426-5.368c0,0-2.193-2.631-5.467-1.365c0,0-1.941,0.854-2.574,2.596
			C316.329,47.678,307.963,42.204,304.185,44.597z"/>
		
			<linearGradient id="SVGID_89_" gradientUnits="userSpaceOnUse" x1="217.8555" y1="383.6475" x2="240.8145" y2="383.6475" gradientTransform="matrix(-0.953 -0.3029 0.3029 -0.953 417.0117 484.3604)">
			<stop  offset="0.3388" style="stop-color:#008BBF"/>
			<stop  offset="0.6467" style="stop-color:#00ACBF"/>
			<stop  offset="1" style="stop-color:#FFFFFF"/>
		</linearGradient>
		<path fill="#FFFFFF" stroke="url(#SVGID_89_)" stroke-width="0.202" stroke-miterlimit="10" d="M304.169,44.464
			c4.99-0.741,6.754,9.307,11.207,11.672c3.562,1.895,7.986,0.545,9.881-3.02c1.515-2.85,0.434-6.39-2.416-7.906
			c-2.28-1.21-5.111-0.345-6.324,1.933c-0.971,1.827-0.277,4.091,1.547,5.06c1.459,0.777,3.27,0.223,4.047-1.236
			c0.621-1.166,0.178-2.616-0.99-3.239c-0.934-0.495-2.094-0.141-2.59,0.793c-0.396,0.747-0.113,1.676,0.633,2.073
			c0.599,0.318,0.945-0.129,1.264-0.727"/>
	</g>
</g>
<g>
	
		<linearGradient id="SVGID_90_" gradientUnits="userSpaceOnUse" x1="75.748" y1="203.2188" x2="95.9971" y2="203.2188" gradientTransform="matrix(-0.953 0.3029 0.3029 0.953 417.0117 -130.3613)">
		<stop  offset="0.3388" style="stop-color:#008BBF"/>
		<stop  offset="0.6467" style="stop-color:#00ACBF"/>
		<stop  offset="1" style="stop-color:#FFFFFF"/>
	</linearGradient>
	<path fill="#FFFFFF" stroke="url(#SVGID_90_)" stroke-width="0.3228" stroke-miterlimit="10" d="M387.542,93.463
		c0,0,2.135,1.361,4.943-3.802c0,0,2.715-5.681,4.877-6.375c0,0,3.096-1.495,5.542-0.244c0,0,2.601,0.811,3.573,4.097
		c0,0,0.638,2.953-1.249,4.702c0,0-1.923,2.306-4.79,1.196c0,0-1.701-0.748-2.256-2.273
		C398.183,90.764,390.853,95.559,387.542,93.463z"/>
	
		<linearGradient id="SVGID_91_" gradientUnits="userSpaceOnUse" x1="75.8433" y1="203.2539" x2="95.959" y2="203.2539" gradientTransform="matrix(-0.953 0.3029 0.3029 0.953 417.0117 -130.3613)">
		<stop  offset="0.3388" style="stop-color:#008BBF"/>
		<stop  offset="0.6467" style="stop-color:#00ACBF"/>
		<stop  offset="1" style="stop-color:#FFFFFF"/>
	</linearGradient>
	<path fill="#FFFFFF" stroke="url(#SVGID_91_)" stroke-width="0.177" stroke-miterlimit="10" d="M387.529,93.579
		c4.372,0.649,5.917-8.152,9.819-10.227c3.121-1.659,6.996-0.476,8.656,2.646c1.328,2.498,0.38,5.599-2.117,6.928
		c-1.998,1.06-4.478,0.302-5.541-1.693c-0.85-1.6-0.242-3.584,1.355-4.434c1.278-0.68,2.865-0.194,3.547,1.083
		c0.543,1.022,0.155,2.293-0.868,2.838c-0.818,0.435-1.834,0.124-2.269-0.694c-0.349-0.654-0.1-1.468,0.555-1.815
		c0.523-0.279,0.827,0.113,1.105,0.637"/>
</g>
<g>
	
		<linearGradient id="SVGID_92_" gradientUnits="userSpaceOnUse" x1="213.7549" y1="387.7266" x2="224.9375" y2="387.7266" gradientTransform="matrix(-0.953 -0.3029 0.3029 -0.953 417.0117 484.3604)">
		<stop  offset="0.3388" style="stop-color:#008BBF"/>
		<stop  offset="0.6467" style="stop-color:#00ACBF"/>
		<stop  offset="1" style="stop-color:#FFFFFF"/>
	</linearGradient>
	<path fill="#FFFFFF" stroke="url(#SVGID_92_)" stroke-width="0.1783" stroke-miterlimit="10" d="M320.325,46.125
		c0,0,1.179-0.751,2.73,2.1c0,0,1.499,3.138,2.692,3.521c0,0,1.711,0.825,3.062,0.134c0,0,1.437-0.447,1.974-2.262
		c0,0,0.353-1.632-0.689-2.598c0,0-1.062-1.273-2.646-0.661c0,0-0.939,0.414-1.246,1.256
		C326.202,47.616,322.153,44.967,320.325,46.125z"/>
	
		<linearGradient id="SVGID_93_" gradientUnits="userSpaceOnUse" x1="213.8066" y1="387.7461" x2="224.918" y2="387.7461" gradientTransform="matrix(-0.953 -0.3029 0.3029 -0.953 417.0117 484.3604)">
		<stop  offset="0.3388" style="stop-color:#008BBF"/>
		<stop  offset="0.6467" style="stop-color:#00ACBF"/>
		<stop  offset="1" style="stop-color:#FFFFFF"/>
	</linearGradient>
	<path fill="#FFFFFF" stroke="url(#SVGID_93_)" stroke-width="0.0977" stroke-miterlimit="10" d="M320.317,46.061
		c2.415-0.358,3.27,4.503,5.423,5.648c1.725,0.916,3.865,0.263,4.782-1.461c0.733-1.38,0.21-3.092-1.169-3.826
		c-1.104-0.585-2.474-0.167-3.061,0.936c-0.469,0.883-0.134,1.979,0.748,2.448c0.706,0.375,1.583,0.107,1.959-0.599
		c0.301-0.564,0.086-1.266-0.479-1.567c-0.452-0.239-1.013-0.068-1.253,0.384c-0.192,0.361-0.055,0.811,0.307,1.003
		c0.289,0.154,0.457-0.062,0.61-0.352"/>
</g>
<g>
	
		<linearGradient id="SVGID_94_" gradientUnits="userSpaceOnUse" x1="145.7852" y1="349.6904" x2="162.5977" y2="349.6904" gradientTransform="matrix(-0.953 -0.3029 0.3029 -0.953 417.0117 484.3604)">
		<stop  offset="0.3388" style="stop-color:#008BBF"/>
		<stop  offset="0.6467" style="stop-color:#00ACBF"/>
		<stop  offset="1" style="stop-color:#FFFFFF"/>
	</linearGradient>
	<path fill="#FFFFFF" stroke="url(#SVGID_94_)" stroke-width="0.2681" stroke-miterlimit="10" d="M368.349,100.956
		c0,0,1.771-1.13,4.104,3.157c0,0,2.254,4.717,4.05,5.293c0,0,2.571,1.241,4.602,0.202c0,0,2.159-0.673,2.968-3.401
		c0,0,0.529-2.452-1.037-3.904c0,0-1.597-1.914-3.979-0.993c0,0-1.412,0.621-1.873,1.888
		C377.183,103.197,371.097,99.216,368.349,100.956z"/>
	
		<linearGradient id="SVGID_95_" gradientUnits="userSpaceOnUse" x1="145.8643" y1="349.7197" x2="162.5684" y2="349.7197" gradientTransform="matrix(-0.953 -0.3029 0.3029 -0.953 417.0117 484.3604)">
		<stop  offset="0.3388" style="stop-color:#008BBF"/>
		<stop  offset="0.6467" style="stop-color:#00ACBF"/>
		<stop  offset="1" style="stop-color:#FFFFFF"/>
	</linearGradient>
	<path fill="#FFFFFF" stroke="url(#SVGID_95_)" stroke-width="0.1469" stroke-miterlimit="10" d="M368.337,100.859
		c3.631-0.539,4.914,6.77,8.153,8.491c2.591,1.378,5.81,0.396,7.188-2.196c1.102-2.074,0.314-4.648-1.758-5.752
		c-1.659-0.88-3.719-0.251-4.602,1.406c-0.705,1.328-0.201,2.976,1.126,3.681c1.062,0.564,2.379,0.161,2.944-0.899
		c0.451-0.849,0.129-1.903-0.721-2.356c-0.68-0.36-1.523-0.103-1.884,0.577c-0.289,0.543-0.083,1.219,0.46,1.507
		c0.436,0.232,0.688-0.094,0.919-0.528"/>
</g>
</svg>
